<?xml version="1.0" encoding="UTF-8" standalone="no"?>
<svg
   xmlns:dc="http://purl.org/dc/elements/1.1/"
   xmlns:cc="http://creativecommons.org/ns#"
   xmlns:rdf="http://www.w3.org/1999/02/22-rdf-syntax-ns#"
   xmlns:svg="http://www.w3.org/2000/svg"
   xmlns="http://www.w3.org/2000/svg"
   viewBox="0 0 535.69318 500.19159"
   version="1.1"
   id="svg4677"
   height="500.19159"
   width="535.69318">
  <defs
     id="defs4679" />
  <metadata
     id="metadata4682">
    <rdf:RDF>
      <cc:Work
         rdf:about="">
        <dc:format>image/svg+xml</dc:format>
        <dc:type
           rdf:resource="http://purl.org/dc/dcmitype/StillImage" />
        <dc:title></dc:title>
      </cc:Work>
    </rdf:RDF>
  </metadata>
  <g
     transform="translate(-31.257093,-36.517253)"
     id="layer1">
    <path
       d="m 467.03604,56.972493 c 63.80626,24.877669 76.76877,100.321217 80.09428,124.983327 3.32546,24.66216 -17.85729,115.87036 -38.54791,127.96105 C 487.89179,322.00712 84.889953,333.56665 71.61143,331.63763 58.330904,329.7083 46.445037,200.17754 52.233083,160.33645 58.021128,120.49528 186.8949,76.147483 237.42798,64.682306 287.96305,53.217974 426.52484,53.134744 467.03658,56.972404 Z"
       style="color:#000000;opacity:0.8;fill:#afdde9;stroke-width:4.45080233"
       id="path4876" />
    <path
       d="m 451.47973,79.5276 c 26.72578,32.6672 49.76656,86.29255 54.32351,120.08749 4.55718,33.79677 -19.19097,119.77162 -36.15658,138.79902 C 452.68118,357.44227 179.1668,363.63245 138.18332,370.0886 97.203497,376.5444 90.448471,340.25421 77.251353,311.34384 64.052499,282.43188 80.81146,206.70015 91.864226,143.8282 102.91699,80.956263 199.29822,57.729574 239.98056,55.963452 c 40.68233,-1.765589 154.90228,10.7344 211.50794,23.560944 z"
       style="color:#000000;opacity:0.8;fill:#afdde9;stroke-width:4.45080233"
       id="path4878" />
    <path
       d="m 359.85067,61.742896 c -0.82343,-0.05911 -1.58226,-0.01997 -2.30885,0.03602 -4.44628,0.343199 -8.5259,1.910691 -12.80721,3.751885 -4.28107,1.841195 -8.40942,4.010823 -11.54426,5.952453 -16.17351,10.01788 -33.36061,32.259286 -41.01792,42.389376 -0.10748,0.0258 -0.17851,0.0448 -0.28861,0.0721 -22.65446,5.62287 -45.50633,28.59745 -65.73072,58.55135 -0.27485,-0.35338 -0.54241,-0.68253 -0.82975,-1.0462 3e-5,-0.012 3e-5,-0.024 0,-0.036 0.3753,0.47394 0.32151,0.38069 -0.18038,-0.25253 -1.65741,-2.09378 -3.37127,-4.17267 -5.12276,-6.27719 -0.96207,-1.15512 -1.92143,-2.2412 -2.81392,-3.28296 -9.9014,-11.56158 -21.19873,-23.04581 -33.29827,-31.6382 -12.09954,-8.59251 -25.21151,-14.5781 -38.74485,-13.456 -19.86306,1.64691 -34.1918,7.62522 -43.97672,16.379 -9.784686,8.75321 -14.676221,20.01314 -16.667606,30.91669 -1.991155,10.90391 -1.286955,21.57854 0,30.30369 1.286954,8.72516 3.262062,15.9484 3.679733,18.11064 6.780408,35.09687 27.254853,58.03417 52.850793,69.33716 10.42801,4.8709 17.34537,5.36351 24.82016,7.35946 0.0481,0.006 0.0962,-0.006 0.14431,0 0.048,0.008 0.0962,0.0285 0.1443,0.036 1.40921,0.2208 2.86806,0.26224 4.29308,0.43291 -3.43038,11.62508 -6.87057,22.62676 -10.02908,30.23212 -8.81023,13.86466 -12.35236,22.27812 -16.63066,34.84982 -10.66228,9.95265 -17.82781,26.37979 -19.94964,49.60454 -2.73034,2.9117 -4.6281,6.21567 -5.44751,9.63231 -0.27489,-0.0406 -0.55197,-0.0647 -0.82975,-0.0722 -1.04763,-0.0149 -2.05603,-2e-5 -2.99435,0 -3.71217,8e-5 -8.14644,0.11487 -12.6629,1.37088 -4.516229,1.25602 -9.603786,4.13147 -12.157261,9.52402 -4.018327,8.48504 -1.034078,17.86013 5.483524,21.75401 3.25883,1.94659 7.442937,2.63394 11.399957,1.29873 2.88272,-0.9727 5.38367,-3.0052 7.21517,-5.66385 l 10.38983,38.0245 c 5.87142,21.49772 30.98827,34.03133 58.37011,30.91669 16.92389,-1.92501 32.80071,-9.28424 42.78534,-20.23825 1.10275,4.48033 2.22239,9.10277 3.60759,15.98188 0.42906,2.13072 1.09005,4.23005 2.30885,6.31333 1.2188,2.08327 3.19049,4.75415 7.21516,5.48352 4.02468,0.72936 7.83486,-1.70428 9.84865,-4.1848 2.01389,-2.48051 3.38639,-5.46609 4.79802,-9.52401 3.1098,-8.93919 1.52569,-19.22351 0,-28.24766 -0.70139,-4.14808 -1.48551,-7.77575 -2.16455,-10.67844 2.41044,-1.83023 4.37239,-4.25406 5.95246,-6.85441 2.96895,-4.88599 5.07289,-10.89848 6.49364,-17.71352 2.09656,-10.05586 2.6553,-21.84982 0.86582,-33.54993 0.75217,0.21211 1.52373,0.43574 2.16455,0.61329 2.40583,0.66527 4.73823,1.2567 6.99871,1.80379 -0.003,-9.7e-4 0.0855,0.0232 0.28861,0.0721 0.37486,0.0902 0.84071,0.237 1.37088,0.36076 0.66942,0.15659 1.30854,0.27767 1.83992,0.39683 1.70971,0.38197 3.35211,0.71473 4.8703,1.01012 0.82549,0.16083 1.58814,0.31031 2.27283,0.43291 2.18268,0.39003 4.22809,0.70788 6.13289,0.93798 1.1572,0.14044 2.18071,0.22417 3.13866,0.2886 2.31185,6.38386 2.96295,11.69203 0.36075,23.05274 -1.51129,6.55622 6.24175,11.22282 11.32781,6.81827 8.21467,-7.10942 15.52935,-15.92069 19.76955,-26.5518 1.32171,-0.18069 2.61524,-0.35308 3.96834,-0.54114 2.26014,-0.31437 4.47652,-0.63307 6.78226,-0.97405 0.49677,-0.0733 1.01159,-0.14627 1.47905,-0.21645 4.65545,-0.70023 9.43709,-1.5153 14.28602,-2.41714 1.02256,-0.18982 2.06931,-0.37479 3.10253,-0.57721 0.24558,-0.0481 0.58061,-0.10182 0.97404,-0.18038 5.58096,-1.11219 11.20221,-2.38505 16.81076,-3.93221 0.74451,-0.20581 1.09854,-0.36535 1.08227,-0.36076 3.54848,-1.00107 7.13286,-2.06469 10.67845,-3.31897 0.54275,-0.19238 1.10681,-0.41173 1.65948,-0.61329 0.86186,8.9804 0.0115,17.96287 -1.69562,24.85595 -1.11319,4.49638 -2.63013,8.11747 -3.75188,9.92091 -0.17372,0.27929 -0.11141,0.18048 -0.25253,0.36076 -5.07509,-0.4063 -10.20952,1.59022 -13.24012,5.33922 -3.61566,4.47329 -4.8322,10.48023 -3.93221,16.77497 1.70913,11.95524 0.8312,22.04377 5.19492,39.71919 0.49802,2.01724 1.16817,4.03968 2.38101,6.06074 1.21284,2.02105 3.1502,4.65638 7.17914,5.41137 4.02884,0.755 7.82528,-1.70797 9.81263,-4.18479 1.98734,-2.47683 3.35511,-5.44382 4.762,-9.488 2.92024,-8.3943 2.50523,-18.80907 1.9481,-27.95905 -0.41271,-6.77856 -0.88423,-9.7668 -1.22658,-12.3743 4.59346,-3.8365 7.82701,-9.36251 10.24553,-15.72906 6.59293,7.40692 16.64106,13.1039 28.78909,15.58476 22.23887,4.54301 41.18647,-3.89608 48.23308,-18.75943 l 16.21969,-34.17102 c 0.44613,-0.94096 0.64589,-1.96714 0.93797,-2.95822 0.48664,-0.73033 0.81353,-1.76257 1.01013,-2.99435 h 0.0722 c 0.0182,-0.11105 0.0182,-0.21383 0.036,-0.32468 0.006,-0.0459 0.0314,-0.0614 0.036,-0.10817 3.15436,-19.70259 -0.23563,-35.80568 -7.86452,-47.40305 0.64965,-3.95576 0.3448,-8.3644 -1.26272,-12.87878 -2.11606,-5.94322 -6.8297,-11.90444 -14.32181,-15.47624 -6.83178,-3.25687 -13.55296,-8.16075 -19.40821,-12.9873 l -8.18927,-27.7778 c -0.56537,-4.34965 -1.24609,-8.73358 -2.12853,-13.1316 -0.21053,-1.04905 -0.44465,-2.04749 -0.64937,-2.99435 -0.99709,-4.61644 -2.31451,-9.29244 -3.6436,-13.96163 12.43779,-8.21398 24.63315,-19.54444 34.74131,-41.84796 7.134,-15.74175 6.9082,-40.77549 -0.0722,-61.69023 -3.49017,-10.45725 -8.81889,-20.00736 -17.38796,-25.90302 -8.56966,-5.89484 -20.40218,-6.98324 -32.54097,-1.51518 -16.76227,7.55099 -24.3457,22.15229 -29.90657,36.32864 -4.86418,-7.53459 -9.89828,-15.09066 -15.33194,-22.6914 -2.05765,-2.87822 -4.61516,-5.22748 -7.32345,-7.32345 6.06455,-9.88582 10.28744,-19.54098 17.1721,-25.57747 3.76135,-3.298197 11.79361,-8.274351 18.65091,-13.058871 3.42864,-2.392548 6.60239,-4.724605 9.19939,-7.431619 1.2985,-1.35345 2.50026,-2.798676 3.42726,-4.798027 0.92699,-1.999466 1.51726,-4.97627 0.46899,-7.828395 -0.87479,-2.380197 -3.13843,-4.412795 -5.12277,-5.194919 -1.98434,-0.78217 -3.66611,-0.795088 -5.1589,-0.68544 -2.98546,0.219294 -5.55602,1.107949 -8.29744,2.272834 -5.48272,2.329632 -11.21952,5.868757 -15.69327,10.065212 C 376.416,85.90527 363.95904,103.4215 355.97503,114.98885 l 2.381,-7.93668 c 1.6731,-5.49648 -3.66358,-10.535441 -9.05508,-8.549916 -2.03306,0.751612 -3.73792,1.804716 -5.33923,2.994356 -2.31485,-2.059744 -5.71327,-2.339269 -8.33357,-0.68545 -3.72926,2.34372 -8.82894,4.72819 -15.22457,11.25566 -0.62527,-0.0903 -0.63367,-0.13256 -1.40702,-0.21645 3.64649,-5.47314 7.46914,-10.43971 13.02309,-13.961636 4.37631,-2.774779 13.35902,-6.876225 20.9967,-10.96705 3.81884,-2.045412 7.34619,-4.075009 10.28155,-6.529666 1.46774,-1.227386 2.85882,-2.540546 4.00448,-4.545553 1.14564,-2.005008 1.92477,-5.281847 0.82974,-8.261306 -0.96068,-2.613852 -3.56083,-4.638485 -5.55568,-5.303203 -0.99742,-0.332336 -1.88229,-0.482077 -2.70574,-0.541137 z M 157.28349,384.50895 c 4.0249,1.11322 7.90666,1.97591 10.38983,2.63347 3.40291,0.90115 5.02464,1.7373 7.28732,2.81392 2.26268,1.07662 5.31359,2.42822 9.41573,3.03037 2.81853,0.41372 5.02938,0.55108 7.35947,0.18038 0.59267,-0.0943 1.24193,-0.42316 1.87594,-0.64937 1.04378,2.70032 2.01621,5.69236 2.92209,9.01896 -7.8471,-0.0726 -16.22777,0.22803 -25.32581,1.29873 -3.35014,0.39427 -6.28262,1.03027 -9.45186,1.55131 -0.024,-0.0121 -0.048,-0.0241 -0.0721,-0.036 -2.95049,-1.38024 -6.70145,-2.91274 -10.71447,-4.29309 1.50919,-6.02356 3.69359,-11.2732 6.31333,-15.54896 z m 67.46467,7.46913 c 5.77121,3.04203 11.71166,5.67713 17.64079,8.04497 3.51627,8.22344 3.62594,19.88499 1.33475,29.76226 -1.23385,5.31937 -3.10022,10.06499 -4.83416,13.1316 -1.73395,3.06662 -3.88857,3.41133 -1.47905,3.10252 -0.52161,0.0668 -1.06011,0.19691 -1.58734,0.28861 l -0.0346,-29.1839 c -0.009,-0.26572 -0.033,-0.5307 -0.0722,-0.79366 -0.39277,-3.37347 -2.47278,-6.22409 -4.68985,-7.9727 -1.02966,-0.81212 -2.08016,-1.45493 -3.21069,-2.02025 -0.66465,-5.01979 -1.69216,-9.81447 -3.06639,-14.35875 z"
       style="fill:#2b1100;stroke-width:1.15442634"
       id="path3889" />
    <path
       d="m 245.18151,390.68513 c 15.62631,20.23709 2.221,61.06684 -6.89689,62.23512 -7.36074,0.94334 -13.2355,4.6685 -11.24919,14.11863 3.50737,16.68377 5.39047,21.31764 8.78749,38.18727 1.22588,6.08798 5.7547,11.68626 10.7955,-2.80318 4.22682,-12.15034 -3.73999,-40.5446 -3.73999,-40.5446 12.68021,-1.11773 21.89023,-40.92442 10.15375,-69.65693 l -7.85079,-1.53701 z"
       style="fill:#deaa87;fill-opacity:1;stroke:#deaa87;stroke-width:3;stroke-miterlimit:4;stroke-dasharray:none;stroke-opacity:1"
       id="path3743" />
    <path
       d="m 387.83396,383.66621 c 11.96332,27.56309 0.55269,64.40314 -6.89677,62.23513 -7.12523,-2.07382 -12.61557,4.55917 -11.24919,14.11863 1.82411,12.75872 0.9157,22.15806 5.07682,39.01268 1.48852,6.02922 5.7547,11.68626 10.7955,-2.80318 4.22682,-12.15033 -0.0293,-41.36886 -0.0293,-41.36886 14.14288,-7.69852 22.56211,-46.86163 10.15376,-72.57186 l -7.8508,1.37839 z"
       style="fill:#deaa87;fill-opacity:1;stroke:#deaa87;stroke-width:3;stroke-miterlimit:4;stroke-dasharray:none;stroke-opacity:1"
       id="path3745" />
    <path
       d="m 453.32457,338.19336 c -16.34899,0.23693 -33.22785,11.13883 -40.65774,33.36985 -5.23117,3.28157 -8.6373,7.71087 -8.91079,13.09581 l -1.87594,36.94164 c -0.63693,12.54284 11.54542,25.55785 31.42233,29.61796 19.87691,4.06047 35.16844,-3.58738 40.54922,-14.93596 l 16.20815,-34.17102 c 0.59487,-1.33637 0.94221,-2.76358 1.44303,-4.07651 6.5262,-39.63954 -15.29384,-60.1814 -38.16764,-59.85008 z m -1.80379,12.33851 c 14.94058,-0.0976 29.22199,12.76449 30.1236,29.69069 -7.26134,-6.23621 -17.89361,-11.39592 -29.32936,-13.70881 -8.40284,-1.78244 -17.00585,-1.75669 -25.43316,-0.25253 6.66612,-11.05386 15.76831,-15.67134 24.64007,-15.72906 z"
       style="fill:#a05a2c;stroke:#a05a2c;stroke-width:3;stroke-miterlimit:4;stroke-dasharray:none;stroke-opacity:1"
       id="path3759" />
    <path
       d="m 387.71852,192.80491 c 14.15211,-20.21862 14.27564,-53.34834 40.81474,-65.30474 42.03728,-18.93721 52.37286,54.37694 40.81475,79.88053 -15.53858,34.28877 -34.01287,39.64877 -54.8087,52.47676 l -26.82194,-67.0537 z"
       style="opacity:1;vector-effect:none;fill:#dff1f6;fill-opacity:1;stroke:#dff1f6;stroke-width:3;stroke-linecap:butt;stroke-linejoin:miter;stroke-miterlimit:4;stroke-dasharray:none;stroke-dashoffset:0;stroke-opacity:1"
       id="path3707" />
    <path
       d="m 245.44702,212.62641 c -1.74918,-3.49849 -56.01507,-92.83319 -99.70549,-89.2106 -75.102354,6.22686 -53.019333,75.59992 -50.727797,87.46049 11.912527,61.66253 66.081667,80.85256 116.620147,69.38564 l 33.81776,-67.63668 z"
       style="fill:#dff1f6;fill-opacity:1;stroke:#dff1f6;stroke-width:3;stroke-miterlimit:4;stroke-dasharray:none;stroke-opacity:1"
       id="path3705" />
    <path
       d="m 209.16341,162.89373 c -11.59968,15.01678 -23.61841,45.1473 -32.65642,63.99447 -4.76374,2.85466 -10.09915,4.67842 -13.5241,13.16738 -5.27365,13.07157 -11.98987,25.06722 -15.99342,37.961 18.19491,5.67839 44.7698,6.73758 64.62709,2.23151 l 11.86866,-23.73731 18.54239,-49.56876 c -5.64422,-8.94992 -17.77124,-26.9547 -32.86536,-44.04829 z"
       style="opacity:0.15;fill:#02002b;fill-opacity:1;stroke:#000028;stroke-width:3;stroke-miterlimit:4;stroke-dasharray:none;stroke-opacity:1"
       id="path3821-9" />
    <path
       d="m 453.32457,338.19336 c -15.63324,0.22655 -31.73403,10.20986 -39.61068,30.52073 3.86906,-0.70858 7.97339,-2.21893 13.24012,-2.92209 0.1069,-0.0521 0.21754,-0.0937 0.32468,-0.1443 6.62849,-10.59498 15.54435,-15.05949 24.24295,-15.11606 14.94059,-0.0975 29.222,12.76449 30.1236,29.69069 -0.006,0.0204 0.10783,4.04927 -0.72151,7.72023 -2.00351,-6.04608 -13.24589,-12.858 -27.95905,-16.379 -17.43761,-4.17245 -33.14474,-2.12207 -35.0657,4.54555 -1.92131,6.66762 10.66574,15.45315 28.10335,19.62525 16.47713,3.94259 31.38308,2.34948 34.597,-3.46328 0.60761,2.84346 3.17525,3.1345 5.69998,3.82403 1.21469,-18.11064 8.6231,-36.11622 -30.44799,-57.82983 -0.84401,-0.045 -1.67704,-0.0844 -2.52531,-0.0722 z"
       style="opacity:0.3;fill:#2b0000;stroke:#2c0000;stroke-width:3;stroke-miterlimit:4;stroke-dasharray:none;stroke-opacity:1"
       id="path3964" />
    <path
       d="m 436.11207,268.593 -17.49648,9.92091 22.72834,51.01179 c 0,0 -0.57923,7.5885 3.21069,9.92091 0,0 2.94067,-0.31206 4.68986,2.02024 0.62608,1.35645 2.05453,3.9082 3.60758,6.52967 -7.71468,-1.10177 -9.49031,1.12382 -8.58604,4.87029 5.97127,5.26904 10.07698,4.85171 14.0332,4.07651 0.0616,0.0985 0.54114,0.86582 0.54114,0.86582 7.0465,7.97801 13.71689,2.69039 13.4202,2.34487 -3.6399,-5.41899 -6.1883,-9.94953 -1.44303,-16.91927 1.28211,-1.88321 7.37898,4.1422 12.22999,9.6323 2.16963,-6.12538 0.84578,-17.94671 -11.07533,-23.62995 -8.26927,-3.94213 -16.03036,-9.74151 -22.43974,-15.15184 l -13.4202,-45.49133 z"
       style="fill:#deaa87;fill-opacity:1;stroke:#deaa87;stroke-width:3;stroke-miterlimit:4;stroke-dasharray:none;stroke-opacity:1"
       id="path3770" />
    <path
       d="m 395.67252,382.30399 -7.8284,1.37088 c 4.06635,9.36886 4.66231,21.80603 4.40129,31.4224 2.26133,-3.59304 2.11268,-13.34339 8.58601,-15.69334 -0.92382,-6.00786 -2.61778,-11.83518 -5.1589,-17.09936 z"
       style="opacity:0.3;fill:#2b0000;stroke:#2c0000;stroke-width:3;stroke-miterlimit:4;stroke-dasharray:none;stroke-opacity:0.95814981"
       id="path3937-4" />
    <path
       d="m 406.92817,379.60263 -3.24682,6.5658 -1.80379,35.42704 c -0.63693,12.54284 11.54542,25.55784 31.42233,29.61796 12.50705,2.55498 23.18665,0.46426 30.7366,-4.25695 -0.41766,-13.37287 0.0439,-27.46957 5.55568,-42.60526 -28.99804,1.18537 -43.28522,-3.12306 -62.66342,-24.74859 z"
       style="opacity:0.3;fill:#2b0000;stroke:#2c0000;stroke-width:3;stroke-miterlimit:4;stroke-dasharray:none;stroke-opacity:0.99939827"
       id="path3960" />
    <path
       d="m 358.0844,68.704087 c -5.46379,0.421735 -15.75908,5.29443 -21.24837,8.694215 -14.64044,9.068134 -33.99093,33.820078 -40.69353,42.713778 -0.85311,0.1825 -1.71455,0.35809 -2.59746,0.57721 -57.22376,14.20291 -147.40869,180.97941 -93.5801,244.0919 26.28975,30.82318 93.88256,43.00699 98.70922,40.46495 l 21.27838,5.27873 c 36.21551,-8.00029 90.30731,-11.87559 109.23759,-50.28912 30.33948,-61.56671 4.03634,-139.65095 -54.40234,-221.39588 -2.65449,-3.7131 -6.65561,-6.82243 -11.11135,-9.45186 7.60663,-10.61264 11.931,-23.85391 22.04262,-32.721063 9.3684,-8.214666 32.06419,-19.340104 29.79805,-25.505894 -1.57614,-4.288348 -15.66095,2.29777 -22.98001,9.163258 -12.24039,11.481809 -29.14811,35.737579 -35.75143,45.491319 -3.46155,-1.62335 -6.95138,-3.04399 -10.06521,-4.29308 l 4.97846,-16.48636 c -5.28323,1.95318 -11.81094,10.10493 -18.14643,17.3164 -1.68742,-2.81473 0.87589,-8.45306 5.77213,-15.65633 -5.06677,3.18425 -9.37105,4.46474 -16.48636,12.77026 0,0 -6.34461,-1.66757 -16.55909,-0.86582 6.24706,-9.49065 11.20394,-19.73838 22.00568,-26.587592 10.52294,-6.672006 35.56441,-15.876824 33.29827,-22.042615 -0.39403,-1.072093 -1.67808,-1.403205 -3.4993,-1.262712 z"
       style="fill:#ffcc00;stroke:#ffcc00;stroke-width:3;stroke-miterlimit:4;stroke-dasharray:none;stroke-opacity:1"
       id="path2891" />
    <path
       d="m 322.96679,152.26044 c -5.68363,-0.0329 -11.9589,6.17181 -14.65095,12.01435 -3.05631,6.61048 2.46165,19.78998 2.46165,19.78998 0,0 -11.07077,1.28082 -8.90273,2.4633 2.71653,1.48169 27.65342,0.99399 31.85067,-0.73469 -1.53591,-8.25523 1.87597,-32.1231 -10.761,-33.53648 z"
       style="fill:#1a1a1a;stroke-width:1.38294733"
       id="path3753" />
    <path
       d="m 323.38167,158.20711 c 8.93729,0.50043 3.56096,16.32154 5.65529,24.61507 l -12.58233,0.70999 c -6.52199,-8.10725 -5.18509,-24.53625 6.92704,-25.32452 z"
       style="fill:#ffffff;stroke-width:1.38294733"
       id="path3665" />
    <path
       d="m 351.0424,150.02188 c -3.19199,0.19569 -6.2802,1.78312 -7.8284,5.3032 -1.06291,2.41656 -1.83992,29.29357 -1.83992,29.29357 8.48919,1.67045 17.15708,-3.64557 30.30369,-4.54556 0,0 -3.16117,-1.66433 -5.37524,-3.31897 -1.29261,-7.44501 -2.65334,-15.79371 -5.33922,-21.6455 -1.5108,-3.29173 -5.81693,-5.33829 -9.92091,-5.08663 z"
       style="fill:#1a1a1a;stroke-width:1.15442634"
       id="path3749" />
    <path
       d="m 344.98749,195.99932 c -3.03517,1.96406 -7.29694,0.7255 -7.29694,0.7255 -2.68009,-0.1329 -6.55464,-6.46668 -4.91419,-6.63641 5.51437,2.11771 10.71595,2.51413 14.12051,-1.44292 1.76305,2.86148 0.23224,5.96793 -1.90938,7.35383 z"
       style="fill:#800000;stroke-width:1.15442634"
       id="path3675" />
    <path
       d="m 444.18561,318.28092 -0.53085,6.25634 -2.31452,4.99329 c 0,0 -0.57924,7.5885 3.21069,9.92091 0,0 2.94067,-0.31206 4.68985,2.02024 0.62608,1.35645 2.05454,3.9082 3.60759,6.52967 -7.71469,-1.10177 -9.49031,1.12382 -8.58605,4.87029 5.97127,5.26903 10.07699,4.85171 14.03321,4.07651 0.0616,0.0985 0.54113,0.86582 0.54113,0.86582 7.04651,7.97801 13.7169,2.69039 13.42021,2.34487 -1.53619,-2.28703 -2.89034,-4.41729 -3.57156,-6.63795 -1.44015,0.099 -2.74384,-0.26823 -4.00448,-2.70574 -2.1844,-4.22359 0.24344,-10.02273 1.73164,-14.86324 -9.82736,-5.08264 -11.77519,-1.5521 -17.86803,-11.86383 -0.1144,-0.19361 -4.35883,-5.80718 -4.35883,-5.80718 z"
       style="opacity:0.3;fill:#2b0000;stroke:#2c0000;stroke-width:3;stroke-miterlimit:4;stroke-dasharray:none;stroke-opacity:1"
       id="path3942" />
    <path
       d="m 217.35098,200.43818 c -6.38328,10.46129 -5.77021,9.87592 -11.03901,21.37516 69.54842,-12.81298 139.58169,-13.65109 210.24412,-13.81733 -1.45538,-3.01155 -2.97646,-6.02264 -4.54555,-9.05509 -28.429,-2.44049 -151.80016,13.0366 -194.65956,1.49726 z m 210.33335,33.64021 c -53.64965,-0.2256 -200.14568,20.75027 -237.98777,34.79155 -3.69474,13.13507 -4.90494,20.44617 -5.82086,32.85048 84.25349,-26.16854 169.42754,-32.34288 255.0167,-30.65627 -3.25022,-13.63397 -4.7544,-19.352 -11.20807,-36.98576 z m -95.51169,78.73478 c -62.33226,2.85734 -99.64128,11.76938 -146.12316,23.1787 2.5432,10.92919 7.03958,20.71503 13.92469,28.78908 2.57795,3.02252 5.53848,5.89808 8.8025,8.58605 71.06879,-22.00798 139.89338,-19.54213 214.46932,-3.46328 2.2352,-2.98234 4.21218,-6.20225 5.95245,-9.66832 6.32842,-12.60427 8.69831,-21.4829 11.41574,-35.65984 -28.03018,-5.91507 -46.10929,-14.61973 -108.44154,-11.76239 z m 14.48063,71.70155 c -35.14536,0.0775 -69.27597,2.02786 -93.00289,12.44587 22.04492,7.73327 41.8999,10.7925 44.44541,9.45186 3.86594,9.32765 6.06337,16.76574 2.63173,31.74673 8.72781,-7.55353 16.01225,-16.70571 19.22964,-27.63466 27.29872,-3.71344 62.86313,-8.35712 87.44779,-25.54168 -16.94582,0.0734 -35.05992,-0.38739 -53.10361,-0.46899 -2.55012,-0.0115 -5.10499,-0.006 -7.64807,0 z"
       style="fill:#552200;stroke:#552200;stroke-width:3;stroke-linecap:round;stroke-linejoin:round;stroke-miterlimit:4;stroke-dasharray:none;stroke-opacity:1"
       id="path3690" />
    <path
       d="m 240.08281,451.52792 c 0,0 -1.29589,1.31483 -1.81055,1.38078 -7.36073,0.94334 -13.24242,4.65604 -11.25565,14.10594 3.50738,16.68377 5.40548,21.3338 8.8025,38.20458 0.88685,4.40414 3.49502,8.50651 6.78225,4.97847 -2.42002,-6.67594 -11.85595,-41.86181 -9.98036,-48.30466 2.10373,-6.65046 5.95949,-2.49195 7.46181,-10.36511 z"
       style="opacity:0.3;fill:#2b0000;stroke:#2c0000;stroke-width:3;stroke-miterlimit:4;stroke-dasharray:none;stroke-opacity:0.95814981"
       id="path3922" />
    <path
       d="m 309.04096,118.50786 c -127.99124,179.72109 -48.84957,233.14221 -11.33871,288.54313 -16.73722,1.69837 -29.98316,-4.8255 -46.16968,-10.69809 -14.28823,-5.18388 -24.81967,-11.51101 -37.90908,-18.54596 -68.11792,-36.61023 -10.88538,-192.67978 63.18018,-251.48973 7.76067,-4.76319 23.14181,-7.01124 32.23729,-7.80935 z"
       style="opacity:0.3;fill:#280b0b;stroke:#280a0a;stroke-width:3;stroke-miterlimit:4;stroke-dasharray:none;stroke-opacity:1"
       id="path3772" />
    <path
       d="m 169.37033,350.55727 c -20.68732,0.74984 -39.52525,21.14909 -39.28628,69.26558 -7.91925,3.45115 -12.52899,7.24633 -12.12148,10.75059 l 12.9873,47.51157 c 4.65626,17.04857 26.06464,28.68749 50.86633,25.86608 24.80285,-2.82108 47.06019,-19.46594 47.04287,-37.33877 l -0.036,-49.49603 c -0.28984,-2.4894 -2.8467,-4.40956 -7.28731,-5.84428 -3.18864,-37.4646 -28.84681,-61.56094 -52.16622,-60.7159 z m 4.4734,14.21329 c 12.55554,-0.41012 25.43548,12.11109 31.63821,43.8682 -9.46306,-0.66104 -21.04635,-0.37655 -33.44258,1.08228 -11.23949,1.32274 -21.57507,3.45693 -30.15938,5.95245 0.64381,-29.10193 16.03844,-50.38263 31.96375,-50.90327 z"
       style="fill:#a05a2c;stroke:#a05a2c;stroke-width:3;stroke-miterlimit:4;stroke-dasharray:none;stroke-opacity:1"
       id="path3732" />
    <path
       d="m 158.21857,353.05083 c -15.83757,6.74704 -28.33424,27.53538 -28.13914,66.77663 -7.91925,3.45116 -12.52899,7.24634 -12.12147,10.7506 l 12.98729,47.51157 c 4.65626,17.04857 26.06464,28.68749 50.86633,25.86607 8.09011,-0.92018 15.89992,-3.32151 22.76414,-6.74623 -10.45818,0.57664 -22.98117,2.42602 -34.04057,-9.08822 -6.55576,-6.82543 -10.92653,-61.12572 -11.77631,-76.41148 -6.12434,1.12977 -11.80862,2.49287 -16.88348,3.96834 0.64381,-29.10193 16.03844,-50.38263 31.96376,-50.90327 12.55554,-0.41013 25.43547,12.11108 31.6382,43.8682 l 7.90067,1.65948 c 0,0 -8.48031,-36.30439 -22.44205,-47.81864 -8.71569,-7.18792 -32.7176,-9.4334 -32.7176,-9.4334 z"
       style="opacity:0.25;fill:#2b0000;stroke:#2c0000;stroke-width:3;stroke-miterlimit:4;stroke-dasharray:none;stroke-opacity:0.99939827"
       id="path3896-5" />
    <path
       d="m 207.93971,224.2284 c -12.86031,-14.80667 -27.46264,65.58988 -41.19454,98.38483 -11.23615,17.54381 -13.17778,24.42881 -19.85845,44.46503 -2.94725,8.83933 14.0563,11.11101 22.54941,13.36018 7.97086,2.11075 9.38768,4.6827 15.96572,5.64838 9.75952,1.43252 7.13274,-2.23186 8.42962,-4.74978 4.02052,-2.75677 -9.63634,-14.24677 -11.23811,-16.79344 -2.06492,-3.2833 -0.39247,-8.16733 2.8205,-8.64838 5.98039,-0.89543 8.23094,3.17075 12.25885,5.83701 -1.93563,-7.30336 -0.80159,-24.804 -13.78616,-27.38415 -2.80676,-0.55773 -7.90563,-3.85359 -8.06782,-9.98128 l 24.5685,-72.47488 c 1.91842,-5.65912 7.00194,0.10643 10.53125,0.32558 l -2.9805,-27.98791 z"
       style="fill:#deaa87;fill-opacity:1;stroke:#deaa87;stroke-width:3;stroke-miterlimit:4;stroke-dasharray:none;stroke-opacity:1"
       id="path3730" />
    <path
       d="m 138.42016,404.49206 c -3.0725,0.068 -5.96307,0.90219 -8.36959,2.95822 -12.75872,10.90113 -0.29883,27.49728 10.8949,16.992 9.5142,-8.92925 10.23203,-12.41701 17.78509,-13.78154 -5.82927,-2.72698 -13.55065,-6.31864 -20.31098,-6.16902 z"
       style="fill:#ffcc00;stroke-width:1.15442634"
       id="path3755" />
    <path
       d="m 356.81453,156.37122 c 5.59181,5.17333 5.28439,19.98427 4.74134,20.6042 -1.44303,1.64921 -14.62658,2.88607 -14.62658,2.88607 0,0 -4.37585,-19.47633 2.68508,-24.52117 2.6695,-1.55155 4.92213,-0.56823 7.1997,1.03074 z"
       style="fill:#ffffff;stroke-width:1.15442634"
       id="path3670" />
    <path
       d="m 314.63101,162.06825 c -3.97311,6.14954 -3.13244,16.1866 1.63646,22.11425 l 13.27812,-0.79481 c -7.9552,-0.89855 -12.60935,-8.44699 -14.91458,-21.31981 z"
       style="opacity:0.25;fill:#2b0000;stroke-width:1.49612713"
       id="path3826" />
    <path
       d="m 346.18226,161.48533 c -1.67034,7.59774 0.7576,18.3623 0.7576,18.3623 0,0 8.02014,-0.72381 12.22999,-1.83992 -9.12863,-1.23454 -10.89375,-6.86745 -12.9873,-16.52215 z"
       style="opacity:0.25;fill:#2b0000;stroke-width:1.15442634"
       id="path3831-6" />
    <path
       d="m 129.54262,407.92071 c -11.88597,10.89929 0.36366,26.88082 11.39996,16.52215 1.66815,-1.56563 3.00925,-2.8998 4.22082,-4.14878 -10.73351,4.57292 -21.26569,2.27722 -15.62055,-12.37429 z"
       style="opacity:0.25;fill:#2b0000;stroke-width:1.15442634"
       id="path3902-4" />
    <path
       d="m 132.12854,407.0318 c -1.82954,1.4256 1.57625,4.96761 4.84443,2.67989 2.06146,-1.44303 6.49365,-3.71067 6.49365,-3.71067 -3.66553,-0.65919 -7.4838,-1.97269 -11.33808,1.03074 z"
       style="opacity:0.6;fill:#ffffff;stroke-width:1.15442634"
       id="path3908" />
    <path
       d="m 100.04703,422.05089 c -2.318317,0.92149 -4.281188,2.37442 -5.530047,4.61978 -6.621096,11.9056 7.556527,21.00363 13.098117,9.84287 4.71064,-9.4865 4.2693,-12.34312 9.62977,-15.51895 -5.20681,-0.42454 -12.09839,-0.9711 -17.19865,1.05626 z"
       style="fill:#ffcc00;stroke-width:1.15442634"
       id="path3910" />
    <path
       d="m 94.263356,427.165 c -5.956955,11.65624 7.885884,20.34676 13.349784,9.34312 0.82595,-1.6633 1.46855,-3.05796 2.03676,-4.35115 -6.87138,6.51743 -15.533964,7.75232 -15.387352,-4.99209 z"
       style="opacity:0.25;fill:#2b0000;stroke-width:1.15442634"
       id="path3912" />
    <path
       d="m 95.983451,425.7566 c -0.988304,1.60246 2.605425,3.33306 4.444199,0.66748 1.15985,-1.68143 3.88984,-4.66123 3.88984,-4.66123 -2.97531,0.53614 -6.251916,0.61766 -8.334039,3.99374 z"
       style="opacity:0.6;fill:#ffffff;stroke-width:1.15442634"
       id="path3914" />
    <path
       d="m 147.75947,364.52583 c -0.28903,0.86958 -0.55805,1.63824 -0.86582,2.56144 -2.94725,8.83932 14.05399,11.09888 22.5471,13.34747 7.97085,2.11076 9.36713,4.69829 15.94494,5.66385 9.75952,1.43253 7.14474,-2.24409 8.44174,-4.76201 3.43349,-2.35422 -5.97958,-11.03216 -9.81262,-15.11606 -3.38016,2.43261 -5.6044,6.78526 -10.44652,6.78745 -11.08169,0.005 -18.49276,-4.18514 -25.80951,-8.48295 z"
       style="opacity:0.3;fill:#2b0000;stroke:#2c0000;stroke-width:3;stroke-miterlimit:4;stroke-dasharray:none;stroke-opacity:1"
       id="path3916" />
    <path
       d="m 375.54362,444.33734 c -5.80561,0.0115 -7.04145,7.32147 -5.84569,15.68494 1.82411,12.75872 0.88945,22.17884 5.05061,39.03346 1.11639,4.52189 3.81896,8.82074 7.21517,4.58169 -4.09914,-7.29517 -8.97936,-18.76636 -9.99295,-46.68269 -0.42951,-11.82941 12.13525,-9.22444 12.0193,-13.97713 -1.83322,2.23262 -4.22722,1.52462 -8.44644,1.35973 z"
       style="opacity:0.3;fill:#2b0000;stroke:#2c0000;stroke-width:3;stroke-miterlimit:4;stroke-dasharray:none;stroke-opacity:0.95814981"
       id="path3927" />
    <path
       d="m 431.39047,375.59677 c -5.82224,0.10321 -10.60133,1.13081 -13.6003,2.95822 1.2417,6.2316 12.86031,13.49871 28.21187,17.17209 13.56913,3.24694 26.06579,2.73218 31.85524,-0.79366 -1.2043,-6.23956 -12.83145,-13.49178 -28.21187,-17.1721 -6.53902,-1.56471 -12.84068,-2.26059 -18.25379,-2.16455 z"
       style="fill:#ffcc00;stroke-width:1.15442634"
       id="path3950" />
    <path
       d="m 467.21796,389.11343 a 4.5352683,2.4738142 21.4852 1 1 -8.44014,-3.32214 4.5352683,2.4738142 21.4852 1 1 8.44014,3.32214 z"
       style="opacity:0.7;fill:#ffffff;stroke-width:1.15442359"
       id="path3970" />
    <circle
       r="5.0611968"
       cy="174.14421"
       cx="322.4017"
       id="circle21328"
       style="color:#000000;text-decoration:none;text-decoration-line:none;text-decoration-style:solid;text-decoration-color:#000000;white-space:normal;clip-rule:nonzero;display:inline;overflow:visible;visibility:visible;opacity:1;isolation:auto;mix-blend-mode:normal;color-interpolation:sRGB;color-interpolation-filters:linearRGB;solid-color:#000000;solid-opacity:1;fill:#00005b;fill-opacity:1;fill-rule:nonzero;stroke:none;stroke-width:12.53804398;stroke-linecap:butt;stroke-linejoin:miter;stroke-miterlimit:4;stroke-dasharray:none;stroke-dashoffset:0;stroke-opacity:1;marker:none;paint-order:normal;color-rendering:auto;image-rendering:auto;shape-rendering:auto;text-rendering:auto;enable-background:accumulate" />
    <ellipse
       ry="4.1043262"
       rx="4.1674604"
       style="color:#000000;text-decoration:none;text-decoration-line:none;text-decoration-style:solid;text-decoration-color:#000000;white-space:normal;clip-rule:nonzero;display:inline;overflow:visible;visibility:visible;opacity:1;isolation:auto;mix-blend-mode:normal;color-interpolation:sRGB;color-interpolation-filters:linearRGB;solid-color:#000000;solid-opacity:1;fill:#00005b;fill-opacity:1;fill-rule:nonzero;stroke:none;stroke-width:8.00429821;stroke-linecap:butt;stroke-linejoin:miter;stroke-miterlimit:4;stroke-dasharray:none;stroke-dashoffset:0;stroke-opacity:1;marker:none;paint-order:normal;color-rendering:auto;image-rendering:auto;shape-rendering:auto;text-rendering:auto;enable-background:accumulate"
       id="path21326"
       cx="356.35394"
       cy="170.41269" />
  </g>
</svg>
