<?xml version="1.0" encoding="UTF-8" standalone="no"?>
<svg
   xmlns:dc="http://purl.org/dc/elements/1.1/"
   xmlns:cc="http://creativecommons.org/ns#"
   xmlns:rdf="http://www.w3.org/1999/02/22-rdf-syntax-ns#"
   xmlns:svg="http://www.w3.org/2000/svg"
   xmlns="http://www.w3.org/2000/svg"
   xmlns:sodipodi="http://sodipodi.sourceforge.net/DTD/sodipodi-0.dtd"
   xmlns:inkscape="http://www.inkscape.org/namespaces/inkscape"
   width="2000mm"
   height="2000mm"
   viewBox="0 0 2000 2000"
   version="1.1"
   id="svg2399"
   inkscape:version="1.0.2-2 (e86c870879, 2021-01-15)"
   sodipodi:docname="glass_filled_colours.svg">
  <defs
     id="defs2393">
    <clipPath
       clipPathUnits="userSpaceOnUse"
       id="clipPath3496">
      <rect
         style="display:inline;fill:#b3b3b3;stroke-width:0.307975"
         id="rect3498"
         width="398.04086"
         height="1374.141"
         x="956.36627"
         y="-364.36658"
         rx="0"
         ry="0"
         transform="matrix(0.99999903,-0.00139166,0.66863833,0.74358778,0,0)"
         inkscape:label="Body2"
         sodipodi:insensitive="true" />
    </clipPath>
    <clipPath
       clipPathUnits="userSpaceOnUse"
       id="clipPath3500">
      <rect
         style="display:inline;fill:#b3b3b3;stroke-width:0.307975"
         id="rect3502"
         width="398.04086"
         height="1374.141"
         x="956.36627"
         y="-364.36658"
         rx="0"
         ry="0"
         transform="matrix(0.99999903,-0.00139166,0.66863833,0.74358778,0,0)"
         inkscape:label="Body2"
         sodipodi:insensitive="true" />
    </clipPath>
    <clipPath
       clipPathUnits="userSpaceOnUse"
       id="clipPath3504">
      <rect
         style="display:inline;fill:#b3b3b3;stroke-width:0.307975"
         id="rect3506"
         width="398.04086"
         height="1374.141"
         x="956.36627"
         y="-364.36658"
         rx="0"
         ry="0"
         transform="matrix(0.99999903,-0.00139166,0.66863833,0.74358778,0,0)"
         inkscape:label="Body2"
         sodipodi:insensitive="true" />
    </clipPath>
    <clipPath
       clipPathUnits="userSpaceOnUse"
       id="clipPath3508">
      <rect
         style="display:inline;fill:#b3b3b3;stroke-width:0.307975"
         id="rect3510"
         width="398.04086"
         height="1374.141"
         x="956.36627"
         y="-364.36658"
         rx="0"
         ry="0"
         transform="matrix(0.99999903,-0.00139166,0.66863833,0.74358778,0,0)"
         inkscape:label="Body2"
         sodipodi:insensitive="true" />
    </clipPath>
    <clipPath
       clipPathUnits="userSpaceOnUse"
       id="clipPath3512">
      <rect
         style="display:inline;fill:#b3b3b3;stroke-width:0.307975"
         id="rect3514"
         width="398.04086"
         height="1374.141"
         x="956.36627"
         y="-364.36658"
         rx="0"
         ry="0"
         transform="matrix(0.99999903,-0.00139166,0.66863833,0.74358778,0,0)"
         inkscape:label="Body2"
         sodipodi:insensitive="true" />
    </clipPath>
  </defs>
  <sodipodi:namedview
     id="base"
     pagecolor="#ffffff"
     bordercolor="#666666"
     borderopacity="1.0"
     inkscape:pageopacity="0.0"
     inkscape:pageshadow="2"
     inkscape:zoom="0.087500002"
     inkscape:cx="4002.2329"
     inkscape:cy="4079.7539"
     inkscape:document-units="px"
     inkscape:current-layer="g1014-1-1"
     inkscape:document-rotation="0"
     showgrid="false"
     inkscape:pagecheckerboard="true"
     showborder="true"
     inkscape:showpageshadow="false"
     inkscape:window-width="1920"
     inkscape:window-height="1017"
     inkscape:window-x="-8"
     inkscape:window-y="-8"
     inkscape:window-maximized="1"
     showguides="true" />
  <metadata
     id="metadata2396">
    <rdf:RDF>
      <cc:Work
         rdf:about="">
        <dc:format>image/svg+xml</dc:format>
        <dc:type
           rdf:resource="http://purl.org/dc/dcmitype/StillImage" />
        <dc:title></dc:title>
      </cc:Work>
    </rdf:RDF>
  </metadata>
  <g
     inkscape:groupmode="layer"
     id="layer3"
     inkscape:label="Layer 3">
    <g
       id="g1014-1-1"
       transform="matrix(1.0432806,0,0,1.0432806,957.44077,-879.9613)">
      <path
         id="path1792-5-1"
         style="display:inline;fill:#d5f6ff;fill-opacity:1;stroke-width:0.142499"
         d="m 698.73823,981.8289 a 245.39083,93.034576 0 0 0 -244.89821,88.4293 c -6.52771,0.8729 -10.29203,1.9012 -10.29203,3.0045 v 808.3593 c 0,3.1794 31.20464,5.739 69.96546,5.739 h 356.6332 c 38.76082,0 69.96548,-2.5596 69.96548,-5.739 v -789.6018 a 245.39083,93.034576 0 0 0 4.20864,-17.1568 245.39083,93.034576 0 0 0 -245.3909,-93.0345 245.39083,93.034576 0 0 0 -0.19164,0 z" />
      <path
         id="path842-1-4-2-4-7"
         style="fill:#d4ff2a;fill-opacity:1;stroke-width:0.111364"
         d="m 698.73823,1334.308 a 245.39083,56.820792 0 0 0 -244.89821,54.0081 c -6.52771,0.5332 -10.29203,1.1611 -10.29203,1.835 v 493.7048 c 0,1.9418 31.20464,3.5051 69.96546,3.5051 h 356.6332 c 38.76082,0 69.96548,-1.5633 69.96548,-3.5051 v -482.2486 a 245.39083,56.820792 0 0 0 4.20864,-10.4786 245.39083,56.820792 0 0 0 -245.3909,-56.8207 245.39083,56.820792 0 0 0 -0.19164,0 z"
         inkscape:label="náplň" />
      <ellipse
         style="fill:#aaeeff;stroke-width:0.142499"
         id="path842-1-4-1-9-4"
         cx="695.64716"
         cy="1845.0323"
         rx="245.39084"
         ry="93.034576"
         inkscape:label="dno" />
      <ellipse
         style="fill:#00aad4;stroke-width:0.142499"
         id="path842-1-4-6-5"
         cx="695.77899"
         cy="1840.7926"
         rx="245.39084"
         ry="93.034576"
         inkscape:label="dno" />
      <ellipse
         style="display:inline;fill:#80e5ff;stroke-width:0.142499"
         id="ellipse1815-1-5"
         cx="696.26971"
         cy="1386.7397"
         rx="245.39084"
         ry="93.034576"
         inkscape:label="hladina odlesk" />
      <ellipse
         style="display:inline;fill:#e5ff80;stroke-width:0.142499"
         id="path842-1-4-9-2-3"
         cx="696.05054"
         cy="1395.8701"
         rx="245.39084"
         ry="93.034576"
         inkscape:label="hladina" />
      <ellipse
         style="display:inline;opacity:0.594241;fill:#aad400;stroke-width:0.142499"
         id="path842-1-4-6-5-9"
         cx="697.23511"
         cy="1386.4026"
         rx="245.39084"
         ry="93.034576"
         inkscape:label="dno" />
      <path
         id="path842-1-4-5-2-4"
         style="display:none;opacity:0.198953;fill:#aad400;stroke-width:0.142498"
         inkscape:label="hladina"
         d="m 687.26233,1294.3131 a 245.39084,93.034576 0 0 0 -69.77496,4.8625 l 32.05792,93.9476 c 13.99364,41.009 25.69296,76.0217 29.0853,86.9559 a 245.39084,93.034576 0 0 0 17.63915,0.2407 245.39084,93.034576 0 0 0 27.16826,-0.5718 l -26.23335,-134.1606 c -3.6264,-18.5457 -7.0115,-36.0133 -9.94232,-51.2743 z m 66.22575,2.5017 12.41952,89.8713 c 5.46062,39.5147 9.99207,73.6951 11.74689,88.3682 a 245.39084,93.034576 0 0 0 164.00607,-87.7692 245.39084,93.034576 0 0 0 -188.17248,-90.4703 z m -186.63969,11.4271 a 245.39084,93.034576 0 0 0 -115.96942,79.0432 245.39084,93.034576 0 0 0 172.84034,88.8756 l -30.12273,-88.2767 c -11.69385,-34.2693 -21.76655,-64.2968 -26.74819,-79.6421 z" />
      <path
         id="rect840-0-0"
         style="display:inline;fill:#00ccff;stroke-width:0.145335"
         d="m 696.46742,968.98528 a 260.31325,98.692082 0 0 0 -259.75596,92.23902 c -0.35607,0.1891 -0.54217,0.3838 -0.54217,0.5828 v 4.8136 a 260.31325,98.692082 0 0 0 -0.0151,1.0568 260.31325,98.692082 0 0 0 0.0151,1.0644 v 789.8311 c 0,0.2207 0.23048,0.4361 0.66642,0.6444 a 260.31325,98.692082 0 0 0 -0.66642,7.0562 260.31325,98.692082 0 0 0 260.31346,98.6919 260.31325,98.692082 0 0 0 147.19463,-17.2927 c 0.23281,-0.2641 0.42318,-0.2836 0.85433,-0.319 0.24836,-0.01 0.30568,-0.016 0.37593,-0.01 a 260.31325,98.692082 0 0 0 0.26355,-0.07 c 0.37676,-0.5368 0.55325,-0.5492 1.13961,-0.5436 0.24174,0.01 0.48125,0.017 0.72242,-0.018 0.0429,0 0.14619,0 0.23951,0 a 260.31325,98.692082 0 0 0 0.8475,-0.2291 c 0.36586,-0.2906 0.80546,-0.4296 1.39256,-0.3816 0,0 0,0 0,0 a 260.31325,98.692082 0 0 0 5.51825,-1.563 c 0.3105,-1.1918 0.74376,-2.0706 0.97175,-0.2844 a 260.31325,98.692082 0 0 0 1.5221,-0.451 c 0.009,-0.01 0.0175,-0.014 0.0272,-0.021 0.69089,-0.4557 0.92278,-0.5039 1.56572,-0.5445 0.11452,0.01 0.17461,0.011 0.23185,0.015 a 260.31325,98.692082 0 0 0 0.34549,-0.1052 c 0.12985,-0.113 0.27349,-0.2434 0.45388,-0.4214 0.0565,-0.056 -0.0685,-0.01 -0.18293,0.032 -0.0481,0.03 -0.0925,0.058 -0.17233,0.1034 -0.0236,0.013 0.0372,-0.042 0.0557,-0.064 0.0272,-0.01 0.0743,-0.024 0.11658,-0.04 0.49207,-0.3055 -0.46168,0.1063 1.06292,-0.4494 0.0844,0 0.16935,-0.01 0.25326,0.01 0.0434,0.01 0.0652,0.01 0.10125,0.014 0.39323,-0.2816 0.80752,-0.3674 1.28763,-0.3178 0.11882,-0.059 0.30196,-0.1004 0.82556,-0.3114 0.27945,0 0.55903,-0.01 0.83848,0 a 260.31325,98.692082 0 0 0 92.45919,-75.4341 260.31325,98.692082 0 0 0 -0.66615,-7.0561 c 0.43579,-0.2083 0.66615,-0.4238 0.66615,-0.6445 V 1061.803 c 0,-0.205 -0.19848,-0.4051 -0.5755,-0.5995 A 260.31325,98.692082 0 0 0 696.46742,968.98528 Z m -0.0457,14.31276 a 242.81372,91.466515 0 0 1 0.0457,0 242.81372,91.466515 0 0 1 242.29118,85.47036 c 0.35166,0.1802 0.53687,0.3658 0.53687,0.5557 v 738.4329 c 0,0.2045 -0.21499,0.4042 -0.62148,0.5973 a 242.81372,91.466515 0 0 1 0.62148,6.5396 242.81372,91.466515 0 0 1 -0.83029,7.5559 v 12.2621 c 0,0.2045 -0.21477,0.4042 -0.62122,0.5974 a 242.81372,91.466515 0 0 1 0.62122,6.5395 242.81372,91.466515 0 0 1 -242.81381,91.4663 242.81372,91.466515 0 0 1 -242.81375,-91.4663 242.81372,91.466515 0 0 1 0.62148,-6.5395 c -0.40663,-0.1932 -0.62148,-0.3928 -0.62148,-0.5974 v -732.0048 a 242.81372,91.466515 0 0 1 -0.014,-0.9866 242.81372,91.466515 0 0 1 0.014,-0.9793 v -4.4612 c 0,-0.1845 0.17357,-0.365 0.50569,-0.5403 a 242.81372,91.466515 0 0 1 0.32435,-1.6381 v -18.3503 a 242.81372,91.466515 0 0 1 -0.0138,-0.9864 242.81372,91.466515 0 0 1 0.0138,-0.9796 v -4.4612 c 0,-0.1844 0.17384,-0.3649 0.50596,-0.5402 A 242.81372,91.466515 0 0 1 696.4217,983.29804 Z m 165.94993,958.99876 c -0.0158,0.011 -0.0359,0.033 -0.054,0.05 a 260.31325,98.692082 0 0 0 0.0131,-0.01 c 0.0105,-0.012 0.0307,-0.034 0.0412,-0.046 z"
         inkscape:label="obrysová hrana" />
      <path
         id="path842-1-4-1-1-0-2"
         style="fill:#2ad4ff;stroke-width:0.146105"
         d="m 440.51276,1056.9407 a 257.96899,93.034576 0 0 0 -1.69552,10.6489 257.96899,93.034576 0 0 0 257.96896,93.0345 257.96899,93.034576 0 0 0 257.96905,-93.0345 257.96899,93.034576 0 0 0 -1.46741,-9.9087 257.96899,93.034576 0 0 1 -256.27347,82.3859 257.96899,93.034576 0 0 1 -256.50161,-83.1261 z"
         inkscape:label="hrana sklenice" />
      <path
         id="rect1673-2-7"
         style="opacity:0.397906;fill:#d5f6ff;fill-opacity:1;stroke-width:0.152006"
         d="m 891.77086,1119.2985 c 0,0 -0.004,0 -0.004,0 0,0 0.004,0 0.004,0 z m -0.004,0 c 0.004,0 0,0 -0.0254,0.018 -0.0908,0.076 -0.18319,0.1506 -0.27463,0.2261 h 0.0223 c 0.12805,-0.1003 0.25886,-0.222 0.27783,-0.2443 z m -0.30004,0.2442 c -0.0996,0 -0.19908,0 -0.2974,0.016 -0.0536,0.01 0.0818,0.131 0.133,0.1094 0.0114,0 0.0258,-0.014 0.039,-0.022 0.0416,-0.034 0.0836,-0.069 0.12529,-0.103 z m -0.12529,0.1031 c -0.12092,0.099 -0.24166,0.1988 -0.36244,0.2983 0.13204,-0.015 0.26434,-0.026 0.39655,-0.04 -0.18459,0.1336 -0.0666,0.08 0.11947,-0.013 -0.0394,0 -0.0786,0.01 -0.11789,0.013 0,0 0,0 0.004,0 0.0385,0 0.0736,-0.01 0.11553,-0.01 0,0 0,0 0,0 0.0228,0 0.0457,0 0.0684,-0.01 0.021,0 -0.0385,0 -0.0637,0.01 0.21691,-0.1085 0.53744,-0.2754 0.7272,-0.3485 -0.1037,0.01 -0.17005,0.01 -0.29819,0.015 -0.14619,0.01 -0.29329,-0.01 -0.43987,-0.013 -0.0538,0.042 -0.10392,0.078 -0.1475,0.1024 z m 1.10733,-0.1158 c -0.018,0 -0.042,0 -0.0608,0 0.005,0.025 0.005,0.05 -0.004,0.075 0.0206,-0.027 0.0429,-0.052 0.0643,-0.078 z m -0.19059,0.2625 c -0.0228,0.03 -0.0434,0.061 -0.0561,0.093 -0.0171,0.042 0.0206,-0.028 0.0561,-0.093 z m -5.18936,1.5558 c -0.14264,0 -0.28515,0 -0.42743,0.011 -0.009,0.029 -0.0215,0.058 -0.032,0.088 0.21065,-0.062 0.39024,-0.095 0.6178,-0.093 -0.0528,0 -0.10563,0 -0.15836,-0.01 z m 0.27966,0.01 c 0.0232,0 0.0476,0 0.0719,0.01 0.004,0 0.006,0 0.009,0 -0.0272,0 -0.0539,0 -0.0809,0 z m 6.279,6.9443 c -2.17927,1.3551 0.29075,-0.5803 -0.96219,0.3023 -0.0215,0.01 -0.36744,0.167 -0.72615,0.268 -0.0623,0.045 -0.12604,0.086 -0.19778,0.099 -0.22124,0.041 -0.4198,0.06 -0.60269,0.071 -0.004,0 -0.005,0.01 -0.008,0.01 -0.007,0 -0.0153,0 -0.0228,0.01 -0.009,0.062 -0.12346,0.094 -0.20303,0.1024 -0.0787,0.047 -0.15735,0.093 -0.23605,0.1395 -0.0193,0 -0.0385,0.01 -0.0579,0.015 -0.32902,0.1657 -0.6714,0.2867 -1.04229,0.2376 -0.0819,-0.01 -0.16388,-0.011 -0.24586,-0.017 -0.20697,0.1602 -0.45914,0.4057 -0.30135,0.065 -0.0219,0.01 -0.0438,0.012 -0.0656,0.018 -0.0712,0.2391 -0.15678,0.47 -0.27835,0.6797 -0.12,0.2071 -1.03419,0.5543 -1.29529,0.5451 -0.0626,0 -0.0568,-0.1942 -0.11579,-0.1701 -0.16502,0.067 -0.2707,0.2552 -0.40602,0.3828 l -0.32701,0.062 c -0.12801,0.1712 -0.24643,0.3514 -0.38911,0.509 -0.41783,0.3999 -0.29114,0.3059 -0.45918,0.344 -0.45664,0.427 -2.47466,1.388 -1.30348,0.7122 -0.2487,0 -0.49728,-2e-4 -0.74598,0 -0.71695,0 -1.43382,-0.011 -2.15072,-0.01 -0.021,0 -0.46168,0.01 -0.76504,-0.01 -0.23044,0.1169 -0.46991,0.2132 -0.70421,0.3194 -0.0585,0.026 -0.1312,-0.035 -0.18849,0 -0.0197,0 -0.0377,0 -0.0568,0 -0.0241,0.012 -0.0219,0.01 -0.0311,0 -0.0219,0 -0.0438,0 -0.065,0 -0.0818,0.014 -0.2685,0.068 -0.74542,0.2516 -0.0888,0.034 0.12035,-0.01 0.25427,-0.041 0.0412,-0.02 0.0736,-0.036 0.12954,-0.061 0.0215,-0.01 -0.0346,0.039 -0.0574,0.045 -0.0158,0 -0.0487,0.011 -0.0722,0.016 -0.52632,0.2524 0.0598,0.05 -0.96483,0.3309 -0.0193,-0.022 0.007,-0.1074 -0.0193,-0.096 -0.49658,0.2117 -0.88941,0.6781 -1.47217,0.5138 -0.18319,0.1011 -0.36761,0.1939 -0.55619,0.2744 -0.43583,0.575 -0.85021,0.6999 -1.32673,0.6709 0.0715,0.2164 -0.2964,0.3273 -0.50648,0.4448 -0.0337,0.1332 -0.14754,0.1798 -0.30082,0.1744 -0.47924,0.2547 -0.98313,0.3862 -1.49596,0.5546 -0.18468,0.061 -0.35933,0.1006 -0.52469,0.1243 -0.0315,0.038 -0.0642,0.077 -0.10152,0.1166 -0.68414,0.7336 0.64846,-0.6414 -1.20332,0.698 -0.1584,0.1146 0.27463,-0.044 0.51655,-0.1535 0.11312,-0.1031 0.22707,-0.205 0.34654,-0.298 0.0916,-0.071 -0.14728,0.2007 -0.24792,0.2534 -0.0236,0.012 -0.0652,0.029 -0.0986,0.045 -0.0848,0.077 -0.16892,0.1555 -0.25484,0.231 -0.26224,0.081 -0.5211,0.1787 -0.78693,0.2418 -0.0601,0.014 -0.1909,0.059 -0.18372,-0.011 0.0114,-0.1082 0.29894,-0.2542 0.20829,-0.2225 -0.16563,0.058 -0.29745,0.2036 -0.44622,0.3054 -0.15289,0.045 -0.30577,0.09 -0.45865,0.1349 -0.37089,0.4892 -0.58141,0.4869 -1.18375,0.4822 -0.28896,0 -0.578,-0.015 -0.86677,0.01 -0.0543,0 -0.83178,-0.01 -1.0476,-0.053 -0.032,0.018 -0.0664,0.036 -0.10418,0.052 -0.51835,0.2216 -0.71056,0.3266 -1.152,0.3091 -0.0685,0 -0.13747,0 -0.20618,-0.01 -0.60988,0.3495 -1.14688,0.3767 -1.54195,0.1987 -0.16751,0.1021 -0.34833,0.1188 -0.61166,0.1204 -0.08,0.07 -0.21227,0.1523 -0.28366,0.1914 -0.0989,0.054 -0.20237,0.095 -0.30691,0.1337 -0.0342,0.034 -0.0688,0.068 -0.0891,0.094 -0.97328,0.4855 -0.98072,0.5812 -1.86974,0.5317 -0.0513,-0.014 -0.10239,-0.029 -0.15359,-0.043 -0.0311,0.017 -0.0289,0.016 -0.0682,0.037 -0.67084,0.2652 -0.98751,0.4149 -1.66246,0.2777 -0.0795,-0.01 -0.1595,-0.014 -0.23873,-0.026 -0.0307,0 -0.0394,-0.079 -0.069,-0.07 -0.10962,0.032 -0.20574,0.1096 -0.31326,0.1498 -0.0228,0.01 -0.14951,0.049 -0.24056,0.079 -0.047,0.051 -0.0969,0.096 -0.157,0.1224 -0.20246,0.087 -0.41385,0.1403 -0.6273,0.1845 -0.10572,0.1112 -0.20781,0.2122 -0.26356,0.243 -0.31155,0.1723 -0.66685,0.2157 -1.00769,0.2823 -0.0171,0 -0.0359,0 -0.0553,0.01 -0.25055,0.3219 -0.42331,0.324 -0.93417,0.3208 -0.43238,0 -0.8648,0 -1.29718,0 -0.0101,0 -0.0197,0 -0.0298,0 -0.22549,0.053 -0.43404,0.046 -0.68704,-0.01 -0.004,-10e-5 -0.007,0 -0.0101,0 -0.55101,0.6054 -0.54015,0.628 -1.09231,0.6329 -0.0507,0 -0.46999,0 -0.76367,-0.014 -0.17969,0.064 -0.35465,0.1118 -0.51813,0.1486 -0.61084,0.4299 -0.856,0.546 -1.31246,0.4947 -0.30148,0.1509 -0.60615,0.2495 -0.74783,0.3175 -0.59954,-0.032 -0.94638,0.017 -1.15467,0 -0.13484,0.095 -0.17,0.069 -0.75496,0.079 4e-5,-0.01 0,-0.019 0,-0.029 -0.22063,0.042 -0.43689,-0.025 -0.75207,-0.1137 0.0656,0.046 0.21432,0.052 0.19694,0.1374 -0.0206,0.1002 -0.16432,0.083 -0.24901,0.1167 -0.27704,0.1096 -0.52755,0.1847 -0.7883,0.1929 -0.006,0 -0.0131,0.01 -0.0188,0.01 -0.0701,0.064 -0.15617,0.1 -0.26009,0.1245 -0.38337,0.1755 -0.11837,0.031 -0.71958,0.1851 -0.16028,0.041 -0.30944,0.1272 -0.4668,0.1814 -0.17228,0.051 -0.3422,0.087 -0.51203,0.1042 -0.26465,0.2211 -0.39993,0.3084 -0.89191,0.3467 -0.0913,0.01 -0.18275,0 -0.27415,-0.01 -0.46536,0.3544 -0.89839,0.34 -1.54667,0.1841 -0.0302,-0.01 0.0565,0.03 0.0846,0.045 0.005,0 0.01,0 0.0136,0 0.0101,0 0.0175,0.013 0.0201,0.027 0.005,0.026 -0.5533,0.3573 -0.78773,0.5047 -0.38775,0.1844 -0.73079,0.2262 -1.08569,0.2039 v 804.5277 c 0.17658,-0.01 0.35276,-0.01 0.5282,0.01 0.51865,-0.6373 1.18997,-0.7023 1.87206,-0.6278 0.24572,-0.155 0.46399,-0.2687 0.5546,-0.3327 0.1076,0 0.21529,-0.01 0.3225,0 0.16721,0.016 0.20912,0.021 0.30927,0.03 0.4841,-0.2923 0.74108,-0.3368 1.28501,-0.3437 0.0757,0 0.15179,0 0.22707,0.01 0.10909,0.012 0.13655,0.017 0.19987,0.025 0.0394,-0.017 0.0791,-0.032 0.11921,-0.047 0.51764,-0.8683 0.62152,-0.8713 1.26648,-0.9243 0.39589,-0.016 0.30217,-0.027 0.55828,0.044 0.43798,-0.6591 0.59262,-0.6656 1.22076,-0.6596 0.24174,0.01 0.48129,0.017 0.72247,-0.018 0.12371,-0.01 0.53157,-0.01 0.81023,0.032 0.41875,-0.4679 0.92711,-0.7018 1.66933,-0.6412 0.38416,0.01 0.76832,0.01 1.15174,-0.021 0.33866,0.014 0.29197,0.01 0.41236,0.052 0.54296,-0.3184 0.83743,-0.3832 1.40636,-0.3017 0,0 0,0.01 0.004,0.01 0.004,0 0.007,-0.01 0.0118,-0.01 -0.004,0 -0.01,0 -0.0145,-0.01 0.004,0 0.0123,-0.01 0.0241,0 -0.004,0 -0.006,0 -0.009,0.01 0.0315,0.01 0.0652,0.01 0.0984,0.016 0.004,0 0.007,-0.01 0.0101,-0.01 -0.0399,-0.01 -0.0727,-0.013 -0.0988,-0.014 0.11855,-0.057 0.21411,-0.113 0.31799,-0.1595 0.0429,-0.046 0.0889,-0.089 0.13988,-0.1231 0.63286,-0.426 1.00296,-0.4413 1.55113,-0.3664 0.15981,-0.1101 0.2939,-0.1909 0.41635,-0.2461 0.32294,-1.4229 0.86187,-2.7806 1.10181,-0.4163 0.23991,-0.01 0.27809,-0.016 0.45095,0.01 0.28475,-0.1964 0.63383,-0.4198 0.74971,-0.433 0.0201,0 0.007,0.046 0.0123,0.068 0.10147,-0.1248 0.17566,-0.2893 0.30454,-0.3744 0.6909,-0.4557 0.92278,-0.5039 1.56572,-0.5445 0.28278,0.02 0.33901,0.017 0.42533,0.042 0.15937,-0.131 0.35421,-0.3048 0.60589,-0.5531 0.0565,-0.056 -0.0684,-0.01 -0.18293,0.032 -0.0481,0.03 -0.0925,0.058 -0.17237,0.1033 -0.0236,0.013 0.0372,-0.042 0.0558,-0.064 0.0267,-0.01 0.0743,-0.024 0.11658,-0.04 0.49207,-0.3055 -0.46167,0.1062 1.06292,-0.4495 0.0843,0 0.16936,-0.01 0.25326,0.01 0.0434,0.01 0.0652,0.01 0.10121,0.014 0.39327,-0.2817 0.80756,-0.3675 1.28768,-0.3179 0.11876,-0.059 0.30191,-0.1004 0.82551,-0.3114 0.39012,0 0.78028,-0.011 1.17026,0 0.28598,0.021 0.40746,0.012 0.75475,-0.061 0.65016,0.1392 0.59126,0.069 0.85301,0.2974 0.13209,0.017 0.25375,0.053 0.37751,0.096 15.02329,-6.3479 26.97513,-12.9332 26.97513,-14.8934 z m -2.47133,0.711 c -0.0153,0.01 -0.0315,0.018 -0.0471,0.026 v 0.01 c 0.0101,0 0.0201,0 0.0298,0 0.0127,-0.012 0.0276,-0.035 0.0175,-0.029 z m -0.059,0.032 c -0.0337,0 -0.0623,0 -0.0943,0 -0.0416,0.023 -0.0831,0.046 -0.12371,0.071 0.0552,-0.012 0.10983,-0.027 0.1644,-0.043 -0.049,0.028 -0.099,0.055 -0.14829,0.083 h 0.0101 c 0.0474,-0.028 0.0948,-0.056 0.1422,-0.084 v 0 c 0.009,-0.01 0.0188,-0.01 0.0285,-0.016 0.007,0 0.0149,-0.01 0.0228,-0.014 z m -8.93383,0.2039 c -0.16935,0.041 -0.33928,0.08 -0.50885,0.1197 0.0416,0.054 0.0888,0.1103 0.1359,0.1669 0.0742,0 0.14837,0 0.22256,0 0.0416,-0.095 0.0907,-0.1894 0.15039,-0.2835 z m -19.16427,0.6168 c -0.11093,0.02 -0.22037,0.035 -0.32753,0.046 0.0149,0.026 0.0289,0.052 0.0444,0.078 0.13441,-0.032 0.27082,-0.054 0.40764,-0.073 -0.0403,-0.016 -0.0826,-0.033 -0.12451,-0.051 z m 0.9699,0.083 c -0.0228,0.01 -0.0465,0.014 -0.069,0.02 -0.028,0.023 -0.057,0.048 -0.0851,0.071 -0.004,0.016 -0.004,0.031 -0.006,0.047 0.0355,-0.016 0.0713,-0.03 0.10703,-0.045 0.018,-0.031 0.0355,-0.062 0.0534,-0.092 z m 23.13528,0.1656 c 0.11737,0.2042 0.21219,0.3123 0.23737,0.124 0.004,-0.022 0.005,-0.044 0.007,-0.066 -0.0724,-0.01 -0.14649,-0.027 -0.22313,-0.055 -0.007,0 -0.014,0 -0.021,0 z m -0.78351,1.0419 -0.70027,0.1325 c 0.58369,0.024 0.43623,0.073 0.70027,-0.1325 z m -0.85674,0.8894 c -0.12052,0.048 -0.2777,0.1163 -0.52768,0.2428 -0.13256,0.067 0.29452,-0.042 0.42139,-0.1222 0.0407,-0.026 0.0744,-0.071 0.10629,-0.1206 z m -8.26054,1.6423 c 0,0 -0.004,0 -0.0109,0 -0.0589,0.034 -0.1172,0.067 -0.17579,0.1008 0.007,0 0.0131,-10e-5 0.0197,0 0.0521,0 0.17289,-0.1015 0.16681,-0.1051 z m -2.40451,0.2905 c -0.11023,0 -0.22007,0.01 -0.32937,0.024 -0.21586,0.034 0.0533,0.083 0.42243,0.084 0,-0.033 0.004,-0.07 0.004,-0.1061 -0.032,0 -0.0645,0 -0.0965,0 z m -0.0925,0.5965 c -0.008,0 -0.0166,0.01 -0.0254,0.01 0,0 0.004,0.01 0.005,0.01 0.007,-0.01 0.0131,-0.011 0.0201,-0.017 z m -8.27293,3.2458 c 0,-0.01 -0.0407,0.032 -0.10257,0.078 0.0193,0 0.0337,-0.01 0.0571,-0.01 0.0302,-0.043 0.0449,-0.064 0.0455,-0.068 z m -4.05112,0.8869 c -0.0787,0.04 -0.14241,0.069 -0.20592,0.098 -0.0214,0.023 -0.0462,0.047 -0.0719,0.072 0.062,-0.016 0.0572,-0.017 0.16124,-0.041 0.0407,-0.033 0.0786,-0.081 0.11658,-0.1285 z m -0.38302,0.1756 c -0.0854,0.034 -0.0911,0.045 -0.0171,0.025 0.006,-0.01 0.0114,-0.016 0.0171,-0.025 z m -0.0931,0.131 c -0.16475,0.057 -0.33064,0.1111 -0.488,0.1899 -0.13006,0.065 0.289,-0.039 0.41267,-0.1191 0.028,-0.018 0.0522,-0.043 0.0753,-0.071 z m -2.44072,0.433 c -0.005,0 0.11767,0.048 0.16392,0.057 0.0215,0 0.0455,0.01 0.0706,0 -0.0745,-0.021 -0.14894,-0.042 -0.22387,-0.06 -0.007,0 -0.0101,0 -0.0105,0 z m -2.6297,0.5132 c 0.0123,-0.016 -0.11561,0.1303 -0.2551,0.2814 0.0123,-0.01 0.025,-0.013 0.0372,-0.018 0.14732,-0.1782 0.20986,-0.2529 0.21783,-0.2631 z m -15.4053,0.3695 c -0.0153,0 -0.0346,0.01 -0.0587,0.021 -0.13546,0.063 -0.25436,0.1549 -0.3645,0.2623 0.12906,-0.058 0.27008,-0.1071 0.42318,-0.1468 0.0519,-0.093 0.0627,-0.1486 0,-0.1364 z m 14.94271,0.015 c -0.19309,0.037 -0.38683,0.071 -0.57734,0.1182 -0.10677,0.026 0.22147,0.016 0.32723,-0.015 0.0858,-0.025 0.16848,-0.063 0.25011,-0.103 z m -0.92445,0.1082 c -0.009,0.014 -0.0254,0.043 -0.0342,0.057 0.007,10e-5 0.0114,-10e-5 0.018,0 0.006,-0.019 0.0105,-0.038 0.0162,-0.057 z m -5.86659,1.5296 c -0.39528,0.067 -0.5885,0.057 -0.19431,0.045 0.0631,-0.019 0.12906,-0.031 0.19431,-0.045 z m -2.02652,0.1954 c -0.0368,0.015 -0.0715,0.03 -0.11018,0.046 -0.007,0 -0.0153,0 -0.0232,0.01 -0.0179,0.01 -0.0381,0.022 -0.0579,0.034 0.0324,0.022 -0.0394,0.045 -0.11207,0.065 -0.0223,0.013 -0.0519,0.03 -0.0724,0.042 0.15178,0 0.32569,-0.1355 0.37562,-0.1939 z m -7.94435,2.1212 c -0.0485,0 -0.0956,0 -0.0732,0.01 0.0206,0 0.0469,0 0.0732,-0.01 z m 26.76869,797.734 c 0,0 0.004,0 0.004,0.01 0,0 0,0 -0.004,-0.01 z m -4.01012,0.2628 c -0.13003,0.094 -0.37821,0.42 -0.28204,0.3154 0.13993,-0.1522 0.21021,-0.2338 0.28204,-0.3154 z m -9.63462,3.4898 c -0.0476,0.02 -0.0901,0.042 -0.12898,0.064 0.0446,0.01 0.0519,0.011 0.0682,0.016 0.0197,-0.027 0.0403,-0.054 0.0608,-0.08 z m -0.0608,0.08 c 0,0 0,0 0,0 0.0145,0.01 0.0263,0.01 0.0416,0.01 0.0127,0 -0.0298,-0.01 -0.0394,-0.01 z m 0,0 c -0.0272,-0.01 -0.0506,-0.01 -0.0764,-0.012 -0.1228,0.074 -0.18731,0.1594 -0.1073,0.2556 0.0647,-0.076 0.12372,-0.1606 0.18372,-0.2434 z m -1.42667,0.3239 c 0.0729,0.022 0.13633,0.042 0.27305,0.077 0.0549,0.014 -0.10475,-0.05 -0.1602,-0.061 -0.032,-0.01 -0.0721,-0.012 -0.11285,-0.016 z m -0.26912,0.01 c -0.0743,0.017 -0.13966,0.051 -0.17977,0.1094 0.065,-0.041 0.12122,-0.074 0.17977,-0.1094 z m -5.58035,1.2719 c 0.0223,0.01 0.0263,0.01 0.0508,0.013 0.0127,0.01 -0.0236,-0.012 -0.0372,-0.013 z m -0.39888,0.064 c -0.05,0.033 -0.0964,0.076 -0.14649,0.1082 0.004,0.039 0.004,0.075 0.007,0.1133 0.0502,-0.081 0.0962,-0.1529 0.1401,-0.2215 z m -0.82105,0.2222 c -0.84329,0.3386 -0.72671,0.2321 -0.62388,0.3448 0.0466,-0.018 0.096,-0.034 0.14303,-0.046 0.16313,-0.095 0.32679,-0.1904 0.48085,-0.299 z m -0.48085,0.299 c -0.0407,0.024 -0.0816,0.048 -0.12214,0.072 0.006,0.01 0.0105,0.021 0.0153,0.032 0.0894,-0.032 0.17825,-0.066 0.26461,-0.1069 0.0776,-0.037 -0.0272,-0.03 -0.15779,0.01 z m -0.12214,0.072 c -0.007,-0.01 -0.0136,-0.019 -0.021,-0.026 -0.0663,0.026 -0.12511,0.058 -0.15437,0.095 -0.0101,0.012 -0.018,0.027 -0.0276,0.041 0.021,-0.01 0.042,-0.016 0.0635,-0.023 0.046,-0.029 0.0924,-0.058 0.13931,-0.086 z m 3.78305,0.1671 c -0.007,0 -0.0145,0.01 -0.0236,0.024 -0.11987,0.2338 -0.20417,0.4891 -0.28628,0.7454 0.0886,-0.079 0.17417,-0.1627 0.25295,-0.2553 0.0873,-0.1025 0.10287,-0.5087 0.0568,-0.5141 z m -1.63737,0.6515 c -0.007,0 -0.0149,0.01 -0.0245,0.025 -0.19685,0.3645 -0.3193,0.6399 -0.40259,0.8578 0.0118,-0.01 0.0236,-0.01 0.035,-0.01 0.0377,-0.054 0.0768,-0.1059 0.12,-0.154 0.0289,-0.033 0.0425,-0.026 0.0447,0.01 0.0531,-0.06 0.10716,-0.1223 0.1623,-0.1911 0.0872,-0.1089 0.11215,-0.5244 0.065,-0.5302 z m -0.22733,0.7222 c -0.0457,0.052 -0.0883,0.095 -0.13217,0.1407 0.039,-0.011 0.0786,-0.022 0.11763,-0.033 0.0105,-0.045 0.0162,-0.084 0.0145,-0.1073 z m -3.38786,0.4807 c -0.005,0.01 -0.0149,0.028 -0.0285,0.07 -0.0448,0.1357 -0.0691,0.2826 -0.0904,0.4312 0.007,0 0.0149,0 0.0223,-0.01 0.0765,-0.3002 0.11706,-0.5205 0.0965,-0.4971 z m -4.05799,0.2829 -0.004,0.01 c -0.0719,0.085 -0.0407,0.2441 -0.008,0.3934 0.004,0.01 0.007,0.01 0.0109,0.01 0,-0.1347 -0.004,-0.2707 0,-0.4036 z"
         inkscape:label="odlesk" />
      <path
         id="path1792-5-1-3"
         style="display:inline;fill:#d5f6ff;fill-opacity:1;stroke-width:0.142499"
         d="m -582.14515,1621.9973 a 245.39083,93.034576 0 0 0 -244.89821,88.4293 c -6.52771,0.8729 -10.29203,1.9012 -10.29203,3.0045 v 808.3593 c 0,3.1794 31.20464,5.739 69.96546,5.739 h 356.63318 c 38.7608,0 69.9655,-2.5596 69.9655,-5.739 v -789.6018 a 245.39083,93.034576 0 0 0 4.2086,-17.1568 245.39083,93.034576 0 0 0 -245.3909,-93.0345 245.39083,93.034576 0 0 0 -0.1916,0 z" />
      <path
         id="path842-1-4-2-4-7-4"
         style="fill:#5fd38d;fill-opacity:1;stroke-width:0.0813558"
         d="m -582.14515,2232.3718 a 245.39083,30.324566 0 0 0 -244.89821,28.8234 c -6.52771,0.2846 -10.29203,0.6197 -10.29203,0.9793 v 263.4843 c 0,1.0363 31.20464,1.8706 69.96546,1.8706 h 356.63318 c 38.7608,0 69.9655,-0.8343 69.9655,-1.8706 v -257.3702 a 245.39083,30.324566 0 0 0 4.2086,-5.5924 245.39083,30.324566 0 0 0 -245.3909,-30.3244 245.39083,30.324566 0 0 0 -0.1916,0 z"
         inkscape:label="náplň" />
      <ellipse
         style="fill:#aaeeff;stroke-width:0.142499"
         id="path842-1-4-1-9-4-2"
         cx="-585.23627"
         cy="2485.2007"
         rx="245.39084"
         ry="93.034576"
         inkscape:label="dno" />
      <ellipse
         style="fill:#00aad4;stroke-width:0.142499"
         id="path842-1-4-6-5-0"
         cx="-585.10443"
         cy="2480.9609"
         rx="245.39084"
         ry="93.034576"
         inkscape:label="dno" />
      <ellipse
         style="display:inline;fill:#87deaa;stroke-width:0.142499"
         id="path842-1-4-9-2-3-6"
         cx="-584.83282"
         cy="2283.6099"
         rx="245.39084"
         ry="93.034576"
         inkscape:label="hladina" />
      <ellipse
         style="fill:#37c871;stroke-width:0.142499"
         id="path842-1-4-6-5-9-8"
         cx="-583.64825"
         cy="2274.1401"
         rx="245.39084"
         ry="93.034576"
         inkscape:label="dno" />
      <ellipse
         style="display:inline;fill:#37c871;stroke-width:0.142499"
         id="ellipse1815-1-5-3"
         cx="-584.61371"
         cy="2274.4773"
         rx="245.39084"
         ry="93.034576"
         inkscape:label="hladina odlesk" />
      <path
         id="path842-1-4-5-2-4-7"
         style="display:none;opacity:0.198953;fill:#afe9c6;stroke-width:0.142498"
         inkscape:label="hladina"
         d="m -593.62105,2181.9951 a 245.39084,93.034576 0 0 0 -69.77496,4.8625 l 32.05796,93.9476 c 13.9936,41.009 25.6929,76.0217 29.0853,86.9559 a 245.39084,93.034576 0 0 0 17.6391,0.2407 245.39084,93.034576 0 0 0 27.1683,-0.5718 l -26.2334,-134.1606 c -3.6264,-18.5457 -7.0115,-36.0133 -9.9423,-51.2743 z m 66.2258,2.5017 12.4195,89.8713 c 5.4606,39.5147 9.992,73.6951 11.7469,88.3682 a 245.39084,93.034576 0 0 0 164.006,-87.7692 245.39084,93.034576 0 0 0 -188.1724,-90.4703 z m -186.63974,11.4271 a 245.39084,93.034576 0 0 0 -115.96942,79.0432 245.39084,93.034576 0 0 0 172.84034,88.8756 l -30.12273,-88.2767 c -11.69385,-34.2693 -21.76655,-64.2968 -26.74819,-79.6421 z" />
      <path
         id="rect840-0-0-7"
         style="display:inline;fill:#00ccff;stroke-width:0.145335"
         d="m -584.41595,1609.1537 a 260.31325,98.692082 0 0 0 -259.75597,92.239 c -0.35607,0.1891 -0.54217,0.3838 -0.54217,0.5828 v 4.8136 a 260.31325,98.692082 0 0 0 -0.0151,1.0568 260.31325,98.692082 0 0 0 0.0151,1.0644 v 789.8311 c 0,0.2207 0.23048,0.4361 0.66642,0.6444 a 260.31325,98.692082 0 0 0 -0.66642,7.0562 260.31325,98.692082 0 0 0 260.31344,98.6919 260.31325,98.692082 0 0 0 147.1947,-17.2927 c 0.2328,-0.2641 0.4231,-0.2836 0.8543,-0.319 0.2483,-0.01 0.3057,-0.016 0.3759,-0.01 a 260.31325,98.692082 0 0 0 0.2636,-0.07 c 0.3767,-0.5368 0.5532,-0.5492 1.1396,-0.5436 0.2417,0.01 0.4812,0.017 0.7224,-0.018 0.043,0 0.1462,0 0.2395,0 a 260.31325,98.692082 0 0 0 0.8475,-0.2291 c 0.3659,-0.2906 0.8055,-0.4296 1.3926,-0.3816 0,0 0,0 0,0 a 260.31325,98.692082 0 0 0 5.5182,-1.563 c 0.3105,-1.1918 0.7438,-2.0706 0.9718,-0.2844 a 260.31325,98.692082 0 0 0 1.5221,-0.451 c 0.01,-0.01 0.017,-0.014 0.027,-0.021 0.6908,-0.4557 0.9227,-0.5039 1.5657,-0.5445 0.1145,0.01 0.1746,0.011 0.2318,0.015 a 260.31325,98.692082 0 0 0 0.3455,-0.1052 c 0.1299,-0.113 0.2735,-0.2434 0.4539,-0.4214 0.056,-0.056 -0.069,-0.01 -0.1829,0.032 -0.048,0.03 -0.093,0.058 -0.1724,0.1034 -0.024,0.013 0.037,-0.042 0.056,-0.064 0.027,-0.01 0.074,-0.024 0.1166,-0.04 0.4921,-0.3055 -0.4617,0.1063 1.0629,-0.4494 0.084,0 0.1694,-0.01 0.2533,0.01 0.043,0.01 0.065,0.01 0.1013,0.014 0.3932,-0.2816 0.8075,-0.3674 1.2876,-0.3178 0.1188,-0.059 0.3019,-0.1004 0.8255,-0.3114 0.2795,0 0.5591,-0.01 0.8385,0 a 260.31325,98.692082 0 0 0 92.4592,-75.4341 260.31325,98.692082 0 0 0 -0.6661,-7.0561 c 0.4358,-0.2083 0.6661,-0.4238 0.6661,-0.6445 v -796.7651 c 0,-0.205 -0.1985,-0.4051 -0.5755,-0.5995 a 260.31325,98.692082 0 0 0 -259.7514,-92.2182 z m -0.046,14.3127 a 242.81372,91.466515 0 0 1 0.046,0 242.81372,91.466515 0 0 1 242.2912,85.4704 c 0.3516,0.1802 0.5368,0.3658 0.5368,0.5557 v 738.4329 c 0,0.2045 -0.2149,0.4042 -0.6214,0.5973 a 242.81372,91.466515 0 0 1 0.6214,6.5396 242.81372,91.466515 0 0 1 -0.8302,7.5559 v 12.2621 c 0,0.2045 -0.2148,0.4042 -0.6213,0.5974 a 242.81372,91.466515 0 0 1 0.6213,6.5395 242.81372,91.466515 0 0 1 -242.8139,91.4663 242.81372,91.466515 0 0 1 -242.81371,-91.4663 242.81372,91.466515 0 0 1 0.62148,-6.5395 c -0.40663,-0.1932 -0.62148,-0.3928 -0.62148,-0.5974 v -732.0048 a 242.81372,91.466515 0 0 1 -0.014,-0.9866 242.81372,91.466515 0 0 1 0.014,-0.9793 v -4.4612 c 0,-0.1845 0.17357,-0.365 0.50569,-0.5403 a 242.81372,91.466515 0 0 1 0.32435,-1.6381 v -18.3503 a 242.81372,91.466515 0 0 1 -0.0138,-0.9864 242.81372,91.466515 0 0 1 0.0138,-0.9796 v -4.4612 c 0,-0.1844 0.17384,-0.3649 0.50596,-0.5402 a 242.81372,91.466515 0 0 1 242.24811,-85.4859 z m 165.9499,958.9988 c -0.016,0.011 -0.036,0.033 -0.054,0.05 a 260.31325,98.692082 0 0 0 0.013,-0.01 c 0.011,-0.012 0.031,-0.034 0.041,-0.046 z"
         inkscape:label="obrysová hrana" />
      <path
         id="path842-1-4-1-1-0-2-7"
         style="fill:#2ad4ff;stroke-width:0.146105"
         d="m -840.37062,1697.1091 a 257.96899,93.034576 0 0 0 -1.69552,10.6489 257.96899,93.034576 0 0 0 257.96899,93.0345 257.96899,93.034576 0 0 0 257.969,-93.0345 257.96899,93.034576 0 0 0 -1.4674,-9.9087 257.96899,93.034576 0 0 1 -256.2735,82.3859 257.96899,93.034576 0 0 1 -256.50157,-83.1261 z"
         inkscape:label="hrana sklenice" />
      <path
         id="rect1673-2-7-6"
         style="opacity:0.397906;fill:#d5f6ff;fill-opacity:1;stroke-width:0.152006"
         d="m -389.11255,1759.4669 c 0,0 0,0 0,0 0,0 0,0 0,0 z m 0,0 c 0,0 0,0 -0.025,0.018 -0.091,0.076 -0.1832,0.1506 -0.2746,0.2261 h 0.022 c 0.1281,-0.1003 0.2589,-0.222 0.2778,-0.2443 z m -0.3,0.2442 c -0.1,0 -0.1991,0 -0.2974,0.016 -0.054,0.01 0.082,0.131 0.133,0.1094 0.011,0 0.026,-0.014 0.039,-0.022 0.042,-0.034 0.084,-0.069 0.1253,-0.103 z m -0.1253,0.1031 c -0.1209,0.099 -0.2417,0.1988 -0.3624,0.2983 0.132,-0.015 0.2643,-0.026 0.3965,-0.04 -0.1846,0.1336 -0.067,0.08 0.1195,-0.013 -0.039,0 -0.079,0.01 -0.1179,0.013 0,0 0,0 0,0 0.038,0 0.074,-0.01 0.1155,-0.01 0,0 0,0 0,0 0.023,0 0.046,0 0.068,-0.01 0.021,0 -0.039,0 -0.064,0.01 0.2169,-0.1085 0.5375,-0.2754 0.7272,-0.3485 -0.1037,0.01 -0.17,0.01 -0.2982,0.015 -0.1462,0.01 -0.2933,-0.01 -0.4398,-0.013 -0.054,0.042 -0.104,0.078 -0.1475,0.1024 z m 1.1073,-0.1158 c -0.018,0 -0.042,0 -0.061,0 0.01,0.025 0.01,0.05 0,0.075 0.021,-0.027 0.043,-0.052 0.064,-0.078 z m -0.1906,0.2625 c -0.023,0.03 -0.043,0.061 -0.056,0.093 -0.017,0.042 0.021,-0.028 0.056,-0.093 z m -5.1893,1.5558 c -0.1427,0 -0.2852,0 -0.4274,0.011 -0.01,0.029 -0.022,0.058 -0.032,0.088 0.2106,-0.062 0.3902,-0.095 0.6178,-0.093 -0.053,0 -0.1057,0 -0.1584,-0.01 z m 0.2796,0.01 c 0.023,0 0.048,0 0.072,0.01 0,0 0.01,0 0.01,0 -0.027,0 -0.054,0 -0.081,0 z m 6.279,6.9443 c -2.1792,1.3551 0.2908,-0.5803 -0.9621,0.3023 -0.022,0.01 -0.3675,0.167 -0.7262,0.268 -0.062,0.045 -0.126,0.086 -0.1978,0.099 -0.2212,0.041 -0.4198,0.06 -0.6027,0.071 0,0 0,0.01 -0.01,0.01 -0.01,0 -0.015,0 -0.023,0.01 -0.01,0.062 -0.1234,0.094 -0.203,0.1024 -0.079,0.047 -0.1573,0.093 -0.236,0.1395 -0.019,0 -0.038,0.01 -0.058,0.015 -0.3291,0.1657 -0.6714,0.2867 -1.0423,0.2376 -0.082,-0.01 -0.1639,-0.011 -0.2459,-0.017 -0.207,0.1602 -0.4591,0.4057 -0.3013,0.065 -0.022,0.01 -0.044,0.012 -0.066,0.018 -0.071,0.2391 -0.1568,0.47 -0.2784,0.6797 -0.12,0.2071 -1.0342,0.5543 -1.2953,0.5451 -0.063,0 -0.057,-0.1942 -0.1158,-0.1701 -0.165,0.067 -0.2707,0.2552 -0.406,0.3828 l -0.327,0.062 c -0.128,0.1712 -0.2464,0.3514 -0.3891,0.509 -0.4178,0.3999 -0.2912,0.3059 -0.4592,0.344 -0.4566,0.427 -2.4747,1.388 -1.3035,0.7122 -0.2487,0 -0.4973,-2e-4 -0.746,0 -0.7169,0 -1.4338,-0.011 -2.1507,-0.01 -0.021,0 -0.4617,0.01 -0.765,-0.01 -0.2305,0.1169 -0.4699,0.2132 -0.7042,0.3194 -0.058,0.026 -0.1312,-0.035 -0.1885,0 -0.02,0 -0.038,0 -0.057,0 -0.024,0.012 -0.022,0.01 -0.031,0 -0.022,0 -0.044,0 -0.065,0 -0.082,0.014 -0.2685,0.068 -0.7454,0.2516 -0.089,0.034 0.1203,-0.01 0.2542,-0.041 0.041,-0.02 0.074,-0.036 0.1296,-0.061 0.022,-0.01 -0.035,0.039 -0.057,0.045 -0.016,0 -0.049,0.011 -0.072,0.016 -0.5263,0.2524 0.06,0.05 -0.9649,0.3309 -0.019,-0.022 0.01,-0.1074 -0.019,-0.096 -0.4965,0.2117 -0.8894,0.6781 -1.4721,0.5138 -0.1832,0.1011 -0.3676,0.1939 -0.5562,0.2744 -0.4358,0.575 -0.8502,0.6999 -1.3267,0.6709 0.072,0.2164 -0.2964,0.3273 -0.5065,0.4448 -0.034,0.1332 -0.1476,0.1798 -0.3008,0.1744 -0.4793,0.2547 -0.9832,0.3862 -1.496,0.5546 -0.1847,0.061 -0.3593,0.1006 -0.5247,0.1243 -0.032,0.038 -0.064,0.077 -0.1015,0.1166 -0.6842,0.7336 0.6484,-0.6414 -1.2033,0.698 -0.1584,0.1146 0.2746,-0.044 0.5165,-0.1535 0.1131,-0.1031 0.2271,-0.205 0.3466,-0.298 0.092,-0.071 -0.1473,0.2007 -0.248,0.2534 -0.024,0.012 -0.065,0.029 -0.099,0.045 -0.085,0.077 -0.1689,0.1555 -0.2548,0.231 -0.2622,0.081 -0.5211,0.1787 -0.7869,0.2418 -0.06,0.014 -0.1909,0.059 -0.1838,-0.011 0.011,-0.1082 0.299,-0.2542 0.2083,-0.2225 -0.1656,0.058 -0.2974,0.2036 -0.4462,0.3054 -0.1529,0.045 -0.3058,0.09 -0.4586,0.1349 -0.3709,0.4892 -0.5814,0.4869 -1.1838,0.4822 -0.2889,0 -0.578,-0.015 -0.8668,0.01 -0.054,0 -0.8317,-0.01 -1.0476,-0.053 -0.032,0.018 -0.066,0.036 -0.1041,0.052 -0.5184,0.2216 -0.7106,0.3266 -1.152,0.3091 -0.068,0 -0.1375,0 -0.2062,-0.01 -0.6099,0.3495 -1.1469,0.3767 -1.542,0.1987 -0.1675,0.1021 -0.3483,0.1188 -0.6116,0.1204 -0.08,0.07 -0.2123,0.1523 -0.2837,0.1914 -0.099,0.054 -0.2024,0.095 -0.3069,0.1337 -0.034,0.034 -0.069,0.068 -0.089,0.094 -0.9733,0.4855 -0.9807,0.5812 -1.8697,0.5317 -0.051,-0.014 -0.1024,-0.029 -0.1536,-0.043 -0.031,0.017 -0.029,0.016 -0.068,0.037 -0.6709,0.2652 -0.9875,0.4149 -1.6625,0.2777 -0.08,-0.01 -0.1595,-0.014 -0.2387,-0.026 -0.031,0 -0.039,-0.079 -0.069,-0.07 -0.1096,0.032 -0.2058,0.1096 -0.3133,0.1498 -0.023,0.01 -0.1495,0.049 -0.2405,0.079 -0.047,0.051 -0.097,0.096 -0.157,0.1224 -0.2025,0.087 -0.4139,0.1403 -0.6273,0.1845 -0.1058,0.1112 -0.2078,0.2122 -0.2636,0.243 -0.3115,0.1723 -0.6668,0.2157 -1.0077,0.2823 -0.017,0 -0.036,0 -0.055,0.01 -0.2505,0.3219 -0.4233,0.324 -0.9342,0.3208 -0.4323,0 -0.8648,0 -1.2971,0 -0.01,0 -0.02,0 -0.03,0 -0.2255,0.053 -0.4341,0.046 -0.6871,-0.01 0,-10e-5 -0.01,0 -0.01,0 -0.551,0.6054 -0.5401,0.628 -1.0923,0.6329 -0.051,0 -0.47,0 -0.7637,-0.014 -0.1797,0.064 -0.3546,0.1118 -0.5181,0.1486 -0.6108,0.4299 -0.856,0.546 -1.3124,0.4947 -0.3015,0.1509 -0.6062,0.2495 -0.7479,0.3175 -0.5995,-0.032 -0.9464,0.017 -1.1547,0 -0.1348,0.095 -0.1699,0.069 -0.7549,0.079 0,-0.01 0,-0.019 0,-0.029 -0.2206,0.042 -0.4369,-0.025 -0.7521,-0.1137 0.066,0.046 0.2143,0.052 0.197,0.1374 -0.021,0.1002 -0.1644,0.083 -0.2491,0.1167 -0.277,0.1096 -0.5275,0.1847 -0.7882,0.1929 -0.01,0 -0.013,0.01 -0.019,0.01 -0.07,0.064 -0.1561,0.1 -0.26,0.1245 -0.3834,0.1755 -0.1184,0.031 -0.7196,0.1851 -0.1603,0.041 -0.3095,0.1272 -0.4668,0.1814 -0.1723,0.051 -0.3422,0.087 -0.5121,0.1042 -0.2646,0.2211 -0.3999,0.3084 -0.8919,0.3467 -0.091,0.01 -0.1827,0 -0.2741,-0.01 -0.4654,0.3544 -0.8984,0.34 -1.5467,0.1841 -0.03,-0.01 0.056,0.03 0.085,0.045 0.01,0 0.01,0 0.014,0 0.01,0 0.018,0.013 0.02,0.027 0,0.026 -0.5533,0.3573 -0.7877,0.5047 -0.3878,0.1844 -0.7308,0.2262 -1.0857,0.2039 v 804.5277 c 0.1766,-0.01 0.3528,-0.01 0.5282,0.01 0.5186,-0.6373 1.19,-0.7023 1.8721,-0.6278 0.2457,-0.155 0.4639,-0.2687 0.5546,-0.3327 0.1076,0 0.2152,-0.01 0.3225,0 0.1672,0.016 0.2091,0.021 0.3092,0.03 0.4841,-0.2923 0.7411,-0.3368 1.285,-0.3437 0.076,0 0.1518,0 0.2271,0.01 0.1091,0.012 0.1366,0.017 0.1999,0.025 0.039,-0.017 0.079,-0.032 0.1192,-0.047 0.5176,-0.8683 0.6215,-0.8713 1.2665,-0.9243 0.3959,-0.016 0.3021,-0.027 0.5582,0.044 0.438,-0.6591 0.5927,-0.6656 1.2208,-0.6596 0.2418,0.01 0.4813,0.017 0.7225,-0.018 0.1237,-0.01 0.5316,-0.01 0.8102,0.032 0.4188,-0.4679 0.9271,-0.7018 1.6693,-0.6412 0.3842,0.01 0.7684,0.01 1.1518,-0.021 0.3386,0.014 0.292,0.01 0.4123,0.052 0.543,-0.3184 0.8375,-0.3832 1.4064,-0.3017 0,0 0,0.01 0,0.01 0,0 0.01,-0.01 0.012,-0.01 0,0 -0.01,0 -0.014,-0.01 0,0 0.012,-0.01 0.024,0 0,0 -0.01,0 -0.01,0.01 0.032,0.01 0.065,0.01 0.098,0.016 0,0 0.01,-0.01 0.01,-0.01 -0.04,-0.01 -0.073,-0.013 -0.099,-0.014 0.1185,-0.057 0.2141,-0.113 0.318,-0.1595 0.043,-0.046 0.089,-0.089 0.1399,-0.1231 0.6328,-0.426 1.0029,-0.4413 1.5511,-0.3664 0.1598,-0.1101 0.2939,-0.1909 0.4163,-0.2461 0.323,-1.4229 0.8619,-2.7806 1.1019,-0.4163 0.2399,-0.01 0.278,-0.016 0.4509,0.01 0.2848,-0.1964 0.6338,-0.4198 0.7497,-0.433 0.02,0 0.01,0.046 0.012,0.068 0.1015,-0.1248 0.1757,-0.2893 0.3046,-0.3744 0.6909,-0.4557 0.9227,-0.5039 1.5657,-0.5445 0.2828,0.02 0.339,0.017 0.4253,0.042 0.1594,-0.131 0.3542,-0.3048 0.6059,-0.5531 0.056,-0.056 -0.068,-0.01 -0.1829,0.032 -0.048,0.03 -0.093,0.058 -0.1724,0.1033 -0.024,0.013 0.037,-0.042 0.056,-0.064 0.027,-0.01 0.074,-0.024 0.1166,-0.04 0.4921,-0.3055 -0.4617,0.1062 1.0629,-0.4495 0.084,0 0.1694,-0.01 0.2533,0.01 0.043,0.01 0.065,0.01 0.1012,0.014 0.3932,-0.2817 0.8075,-0.3675 1.2876,-0.3179 0.1188,-0.059 0.302,-0.1004 0.8256,-0.3114 0.3901,0 0.7802,-0.011 1.1702,0 0.286,0.021 0.4075,0.012 0.7548,-0.061 0.6501,0.1392 0.5912,0.069 0.853,0.2974 0.1321,0.017 0.2537,0.053 0.3775,0.096 15.0233,-6.3479 26.9751,-12.9332 26.9751,-14.8934 z m -2.4713,0.711 c -0.015,0.01 -0.031,0.018 -0.047,0.026 v 0.01 c 0.01,0 0.02,0 0.03,0 0.013,-0.012 0.028,-0.035 0.018,-0.029 z m -0.059,0.032 c -0.034,0 -0.062,0 -0.094,0 -0.042,0.023 -0.083,0.046 -0.1237,0.071 0.055,-0.012 0.1098,-0.027 0.1644,-0.043 -0.049,0.028 -0.099,0.055 -0.1483,0.083 h 0.01 c 0.047,-0.028 0.095,-0.056 0.1422,-0.084 v 0 c 0.01,-0.01 0.019,-0.01 0.028,-0.016 0.01,0 0.015,-0.01 0.023,-0.014 z m -8.9338,0.2039 c -0.1694,0.041 -0.3393,0.08 -0.5089,0.1197 0.042,0.054 0.089,0.1103 0.1359,0.1669 0.074,0 0.1484,0 0.2226,0 0.042,-0.095 0.091,-0.1894 0.1504,-0.2835 z m -19.1643,0.6168 c -0.1109,0.02 -0.2204,0.035 -0.3275,0.046 0.015,0.026 0.029,0.052 0.044,0.078 0.1344,-0.032 0.2708,-0.054 0.4076,-0.073 -0.04,-0.016 -0.083,-0.033 -0.1245,-0.051 z m 0.9699,0.083 c -0.023,0.01 -0.047,0.014 -0.069,0.02 -0.028,0.023 -0.057,0.048 -0.085,0.071 0,0.016 0,0.031 -0.01,0.047 0.035,-0.016 0.071,-0.03 0.107,-0.045 0.018,-0.031 0.035,-0.062 0.053,-0.092 z m 23.1353,0.1656 c 0.1174,0.2042 0.2122,0.3123 0.2374,0.124 0,-0.022 0.01,-0.044 0.01,-0.066 -0.072,-0.01 -0.1465,-0.027 -0.2232,-0.055 -0.01,0 -0.014,0 -0.021,0 z m -0.7835,1.0419 -0.7003,0.1325 c 0.5837,0.024 0.4362,0.073 0.7003,-0.1325 z m -0.8568,0.8894 c -0.1205,0.048 -0.2777,0.1163 -0.5276,0.2428 -0.1326,0.067 0.2945,-0.042 0.4214,-0.1222 0.041,-0.026 0.074,-0.071 0.1062,-0.1206 z m -8.2605,1.6423 c 0,0 0,0 -0.011,0 -0.059,0.034 -0.1172,0.067 -0.1758,0.1008 0.01,0 0.013,-10e-5 0.02,0 0.052,0 0.1729,-0.1015 0.1668,-0.1051 z m -2.4045,0.2905 c -0.1102,0 -0.2201,0.01 -0.3294,0.024 -0.2158,0.034 0.053,0.083 0.4225,0.084 0,-0.033 0,-0.07 0,-0.1061 -0.032,0 -0.064,0 -0.096,0 z m -0.092,0.5965 c -0.01,0 -0.017,0.01 -0.025,0.01 0,0 0,0.01 0,0.01 0.01,-0.01 0.013,-0.011 0.02,-0.017 z m -8.2729,3.2458 c 0,-0.01 -0.041,0.032 -0.1026,0.078 0.019,0 0.034,-0.01 0.057,-0.01 0.03,-0.043 0.045,-0.064 0.046,-0.068 z m -4.0512,0.8869 c -0.079,0.04 -0.1424,0.069 -0.2059,0.098 -0.021,0.023 -0.046,0.047 -0.072,0.072 0.062,-0.016 0.057,-0.017 0.1613,-0.041 0.041,-0.033 0.079,-0.081 0.1165,-0.1285 z m -0.383,0.1756 c -0.085,0.034 -0.091,0.045 -0.017,0.025 0.01,-0.01 0.011,-0.016 0.017,-0.025 z m -0.093,0.131 c -0.1647,0.057 -0.3306,0.1111 -0.488,0.1899 -0.13,0.065 0.289,-0.039 0.4127,-0.1191 0.028,-0.018 0.052,-0.043 0.075,-0.071 z m -2.4407,0.433 c 0,0 0.1177,0.048 0.1639,0.057 0.022,0 0.045,0.01 0.071,0 -0.074,-0.021 -0.1489,-0.042 -0.2238,-0.06 -0.01,0 -0.01,0 -0.011,0 z m -2.6297,0.5132 c 0.012,-0.016 -0.1156,0.1303 -0.2551,0.2814 0.012,-0.01 0.025,-0.013 0.037,-0.018 0.1473,-0.1782 0.2099,-0.2529 0.2178,-0.2631 z m -15.4053,0.3695 c -0.015,0 -0.035,0.01 -0.059,0.021 -0.1355,0.063 -0.2544,0.1549 -0.3645,0.2623 0.1291,-0.058 0.2701,-0.1071 0.4232,-0.1468 0.052,-0.093 0.063,-0.1486 0,-0.1364 z m 14.9427,0.015 c -0.1931,0.037 -0.3868,0.071 -0.5773,0.1182 -0.1068,0.026 0.2214,0.016 0.3272,-0.015 0.086,-0.025 0.1685,-0.063 0.2501,-0.103 z m -0.9244,0.1082 c -0.01,0.014 -0.025,0.043 -0.034,0.057 0.01,10e-5 0.011,-10e-5 0.018,0 0.01,-0.019 0.01,-0.038 0.016,-0.057 z m -5.8666,1.5296 c -0.3953,0.067 -0.5885,0.057 -0.1943,0.045 0.063,-0.019 0.129,-0.031 0.1943,-0.045 z m -2.0265,0.1954 c -0.037,0.015 -0.072,0.03 -0.1102,0.046 -0.01,0 -0.015,0 -0.023,0.01 -0.018,0.01 -0.038,0.022 -0.058,0.034 0.032,0.022 -0.039,0.045 -0.1121,0.065 -0.022,0.013 -0.052,0.03 -0.072,0.042 0.1518,0 0.3257,-0.1355 0.3756,-0.1939 z m -7.9444,2.1212 c -0.049,0 -0.096,0 -0.073,0.01 0.021,0 0.047,0 0.073,-0.01 z m 26.7687,797.734 c 0,0 0,0 0,0.01 0,0 0,0 0,-0.01 z m -4.0101,0.2628 c -0.1301,0.094 -0.3782,0.42 -0.2821,0.3154 0.14,-0.1522 0.2102,-0.2338 0.2821,-0.3154 z m -9.6346,3.4898 c -0.048,0.02 -0.09,0.042 -0.129,0.064 0.045,0.01 0.052,0.011 0.068,0.016 0.02,-0.027 0.04,-0.054 0.061,-0.08 z m -0.061,0.08 c 0,0 0,0 0,0 0.014,0.01 0.026,0.01 0.042,0.01 0.013,0 -0.03,-0.01 -0.039,-0.01 z m 0,0 c -0.027,-0.01 -0.051,-0.01 -0.076,-0.012 -0.1228,0.074 -0.1874,0.1594 -0.1073,0.2556 0.065,-0.076 0.1237,-0.1606 0.1837,-0.2434 z m -1.4267,0.3239 c 0.073,0.022 0.1363,0.042 0.273,0.077 0.055,0.014 -0.1047,-0.05 -0.1602,-0.061 -0.032,-0.01 -0.072,-0.012 -0.1128,-0.016 z m -0.2691,0.01 c -0.074,0.017 -0.1397,0.051 -0.1798,0.1094 0.065,-0.041 0.1212,-0.074 0.1798,-0.1094 z m -5.5804,1.2719 c 0.022,0.01 0.026,0.01 0.051,0.013 0.013,0.01 -0.024,-0.012 -0.037,-0.013 z m -0.3989,0.064 c -0.05,0.033 -0.096,0.076 -0.1465,0.1082 0,0.039 0,0.075 0.01,0.1133 0.05,-0.081 0.096,-0.1529 0.1401,-0.2215 z m -0.821,0.2222 c -0.8433,0.3386 -0.7267,0.2321 -0.6239,0.3448 0.047,-0.018 0.096,-0.034 0.143,-0.046 0.1632,-0.095 0.3268,-0.1904 0.4809,-0.299 z m -0.4809,0.299 c -0.041,0.024 -0.082,0.048 -0.1221,0.072 0.01,0.01 0.011,0.021 0.015,0.032 0.089,-0.032 0.1782,-0.066 0.2646,-0.1069 0.078,-0.037 -0.027,-0.03 -0.1578,0.01 z m -0.1221,0.072 c -0.01,-0.01 -0.014,-0.019 -0.021,-0.026 -0.066,0.026 -0.1251,0.058 -0.1544,0.095 -0.01,0.012 -0.018,0.027 -0.028,0.041 0.021,-0.01 0.042,-0.016 0.063,-0.023 0.046,-0.029 0.092,-0.058 0.1393,-0.086 z m 3.783,0.1671 c -0.01,0 -0.014,0.01 -0.024,0.024 -0.1198,0.2338 -0.2041,0.4891 -0.2862,0.7454 0.089,-0.079 0.1741,-0.1627 0.2529,-0.2553 0.087,-0.1025 0.1029,-0.5087 0.057,-0.5141 z m -1.6373,0.6515 c -0.01,0 -0.015,0.01 -0.024,0.025 -0.1969,0.3645 -0.3193,0.6399 -0.4026,0.8578 0.012,-0.01 0.024,-0.01 0.035,-0.01 0.038,-0.054 0.077,-0.1059 0.12,-0.154 0.029,-0.033 0.043,-0.026 0.045,0.01 0.053,-0.06 0.1071,-0.1223 0.1623,-0.1911 0.087,-0.1089 0.1121,-0.5244 0.065,-0.5302 z m -0.2274,0.7222 c -0.046,0.052 -0.088,0.095 -0.1321,0.1407 0.039,-0.011 0.079,-0.022 0.1176,-0.033 0.011,-0.045 0.016,-0.084 0.014,-0.1073 z m -3.3878,0.4807 c 0,0.01 -0.015,0.028 -0.028,0.07 -0.045,0.1357 -0.069,0.2826 -0.09,0.4312 0.01,0 0.015,0 0.022,-0.01 0.077,-0.3002 0.117,-0.5205 0.097,-0.4971 z m -4.058,0.2829 v 0.01 c -0.072,0.085 -0.041,0.2441 -0.01,0.3934 0,0.01 0.01,0.01 0.011,0.01 0,-0.1347 0,-0.2707 0,-0.4036 z"
         inkscape:label="odlesk" />
    </g>
    <g
       id="g1014-1-1-0"
       transform="matrix(1.0432806,0,0,1.0432806,292.40568,-547.72892)">
      <path
         id="path1792-5-1-0"
         style="display:inline;fill:#d5f6ff;fill-opacity:1;stroke-width:0.142499"
         d="m 698.73823,981.8289 a 245.39083,93.034576 0 0 0 -244.89821,88.4293 c -6.52771,0.8729 -10.29203,1.9012 -10.29203,3.0045 v 808.3593 c 0,3.1794 31.20464,5.739 69.96546,5.739 h 356.6332 c 38.76082,0 69.96548,-2.5596 69.96548,-5.739 v -789.6018 a 245.39083,93.034576 0 0 0 4.20864,-17.1568 245.39083,93.034576 0 0 0 -245.3909,-93.0345 245.39083,93.034576 0 0 0 -0.19164,0 z" />
      <path
         id="path842-1-4-2-4-7-2"
         style="fill:#dd55ff;fill-opacity:1;stroke-width:0.123285"
         d="m 698.73823,1209.5631 a 245.39083,69.637112 0 0 0 -244.89821,66.1899 c -6.52771,0.6536 -10.29203,1.4231 -10.29203,2.249 v 605.0633 c 0,2.3798 31.20464,4.2957 69.96546,4.2957 h 356.6332 c 38.76082,0 69.96548,-1.9159 69.96548,-4.2957 v -591.0231 a 245.39083,69.637112 0 0 0 4.20864,-12.8421 245.39083,69.637112 0 0 0 -245.3909,-69.637 245.39083,69.637112 0 0 0 -0.19164,0 z"
         inkscape:label="náplň" />
      <ellipse
         style="fill:#aaeeff;stroke-width:0.142499"
         id="path842-1-4-1-9-4-3"
         cx="695.64716"
         cy="1845.0323"
         rx="245.39084"
         ry="93.034576"
         inkscape:label="dno" />
      <ellipse
         style="fill:#00aad4;stroke-width:0.142499"
         id="path842-1-4-6-5-3"
         cx="695.77899"
         cy="1840.7926"
         rx="245.39084"
         ry="93.034576"
         inkscape:label="dno" />
      <ellipse
         style="display:inline;opacity:0.801047;fill:#e580ff;stroke-width:0.142499"
         id="path842-1-4-9-2-3-3"
         cx="696.05054"
         cy="1287.8361"
         rx="245.39084"
         ry="93.034576"
         inkscape:label="hladina" />
      <ellipse
         style="display:inline;opacity:1;fill:#dd55ff;stroke-width:0.142499"
         id="path842-1-4-6-5-9-4"
         cx="697.23511"
         cy="1278.3685"
         rx="245.39084"
         ry="93.034576"
         inkscape:label="dno" />
      <path
         id="path842-1-4-5-2-4-6"
         style="display:none;opacity:1;fill:#eeaaff;stroke-width:0.142498"
         inkscape:label="hladina"
         d="m 690.11566,1185.7247 a 245.39084,93.034576 0 0 0 -69.77496,4.8625 l 32.05792,93.9476 c 13.99364,41.009 25.69296,76.0217 29.0853,86.9559 a 245.39084,93.034576 0 0 0 17.63915,0.2407 245.39084,93.034576 0 0 0 27.16826,-0.5718 L 700.05798,1236.999 c -3.6264,-18.5457 -7.0115,-36.0133 -9.94232,-51.2743 z m 66.22575,2.5017 12.41952,89.8713 c 5.46062,39.5147 9.99207,73.6951 11.74689,88.3682 a 245.39084,93.034576 0 0 0 164.00607,-87.7692 245.39084,93.034576 0 0 0 -188.17248,-90.4703 z m -186.63969,11.4271 a 245.39084,93.034576 0 0 0 -115.96942,79.0432 245.39084,93.034576 0 0 0 172.84034,88.8756 l -30.12273,-88.2767 c -11.69385,-34.2693 -21.76655,-64.2968 -26.74819,-79.6421 z" />
      <path
         id="rect840-0-0-3"
         style="display:inline;fill:#00ccff;stroke-width:0.145335"
         d="m 696.46742,968.98528 a 260.31325,98.692082 0 0 0 -259.75596,92.23902 c -0.35607,0.1891 -0.54217,0.3838 -0.54217,0.5828 v 4.8136 a 260.31325,98.692082 0 0 0 -0.0151,1.0568 260.31325,98.692082 0 0 0 0.0151,1.0644 v 789.8311 c 0,0.2207 0.23048,0.4361 0.66642,0.6444 a 260.31325,98.692082 0 0 0 -0.66642,7.0562 260.31325,98.692082 0 0 0 260.31346,98.6919 260.31325,98.692082 0 0 0 147.19463,-17.2927 c 0.23281,-0.2641 0.42318,-0.2836 0.85433,-0.319 0.24836,-0.01 0.30568,-0.016 0.37593,-0.01 a 260.31325,98.692082 0 0 0 0.26355,-0.07 c 0.37676,-0.5368 0.55325,-0.5492 1.13961,-0.5436 0.24174,0.01 0.48125,0.017 0.72242,-0.018 0.0429,0 0.14619,0 0.23951,0 a 260.31325,98.692082 0 0 0 0.8475,-0.2291 c 0.36586,-0.2906 0.80546,-0.4296 1.39256,-0.3816 0,0 0,0 0,0 a 260.31325,98.692082 0 0 0 5.51825,-1.563 c 0.3105,-1.1918 0.74376,-2.0706 0.97175,-0.2844 a 260.31325,98.692082 0 0 0 1.5221,-0.451 c 0.009,-0.01 0.0175,-0.014 0.0272,-0.021 0.69089,-0.4557 0.92278,-0.5039 1.56572,-0.5445 0.11452,0.01 0.17461,0.011 0.23185,0.015 a 260.31325,98.692082 0 0 0 0.34549,-0.1052 c 0.12985,-0.113 0.27349,-0.2434 0.45388,-0.4214 0.0565,-0.056 -0.0685,-0.01 -0.18293,0.032 -0.0481,0.03 -0.0925,0.058 -0.17233,0.1034 -0.0236,0.013 0.0372,-0.042 0.0557,-0.064 0.0272,-0.01 0.0743,-0.024 0.11658,-0.04 0.49207,-0.3055 -0.46168,0.1063 1.06292,-0.4494 0.0844,0 0.16935,-0.01 0.25326,0.01 0.0434,0.01 0.0652,0.01 0.10125,0.014 0.39323,-0.2816 0.80752,-0.3674 1.28763,-0.3178 0.11882,-0.059 0.30196,-0.1004 0.82556,-0.3114 0.27945,0 0.55903,-0.01 0.83848,0 a 260.31325,98.692082 0 0 0 92.45919,-75.4341 260.31325,98.692082 0 0 0 -0.66615,-7.0561 c 0.43579,-0.2083 0.66615,-0.4238 0.66615,-0.6445 V 1061.803 c 0,-0.205 -0.19848,-0.4051 -0.5755,-0.5995 A 260.31325,98.692082 0 0 0 696.46742,968.98528 Z m -0.0457,14.31276 a 242.81372,91.466515 0 0 1 0.0457,0 242.81372,91.466515 0 0 1 242.29118,85.47036 c 0.35166,0.1802 0.53687,0.3658 0.53687,0.5557 v 738.4329 c 0,0.2045 -0.21499,0.4042 -0.62148,0.5973 a 242.81372,91.466515 0 0 1 0.62148,6.5396 242.81372,91.466515 0 0 1 -0.83029,7.5559 v 12.2621 c 0,0.2045 -0.21477,0.4042 -0.62122,0.5974 a 242.81372,91.466515 0 0 1 0.62122,6.5395 242.81372,91.466515 0 0 1 -242.81381,91.4663 242.81372,91.466515 0 0 1 -242.81375,-91.4663 242.81372,91.466515 0 0 1 0.62148,-6.5395 c -0.40663,-0.1932 -0.62148,-0.3928 -0.62148,-0.5974 v -732.0048 a 242.81372,91.466515 0 0 1 -0.014,-0.9866 242.81372,91.466515 0 0 1 0.014,-0.9793 v -4.4612 c 0,-0.1845 0.17357,-0.365 0.50569,-0.5403 a 242.81372,91.466515 0 0 1 0.32435,-1.6381 v -18.3503 a 242.81372,91.466515 0 0 1 -0.0138,-0.9864 242.81372,91.466515 0 0 1 0.0138,-0.9796 v -4.4612 c 0,-0.1844 0.17384,-0.3649 0.50596,-0.5402 A 242.81372,91.466515 0 0 1 696.4217,983.29804 Z m 165.94993,958.99876 c -0.0158,0.011 -0.0359,0.033 -0.054,0.05 a 260.31325,98.692082 0 0 0 0.0131,-0.01 c 0.0105,-0.012 0.0307,-0.034 0.0412,-0.046 z"
         inkscape:label="obrysová hrana" />
      <path
         id="path842-1-4-1-1-0-2-0"
         style="fill:#2ad4ff;stroke-width:0.146105"
         d="m 440.51276,1056.9407 a 257.96899,93.034576 0 0 0 -1.69552,10.6489 257.96899,93.034576 0 0 0 257.96896,93.0345 257.96899,93.034576 0 0 0 257.96905,-93.0345 257.96899,93.034576 0 0 0 -1.46741,-9.9087 257.96899,93.034576 0 0 1 -256.27347,82.3859 257.96899,93.034576 0 0 1 -256.50161,-83.1261 z"
         inkscape:label="hrana sklenice" />
      <path
         id="rect1673-2-7-2"
         style="opacity:0.397906;fill:#d5f6ff;fill-opacity:1;stroke-width:0.152006"
         d="m 891.77086,1119.2985 c 0,0 -0.004,0 -0.004,0 0,0 0.004,0 0.004,0 z m -0.004,0 c 0.004,0 0,0 -0.0254,0.018 -0.0908,0.076 -0.18319,0.1506 -0.27463,0.2261 h 0.0223 c 0.12805,-0.1003 0.25886,-0.222 0.27783,-0.2443 z m -0.30004,0.2442 c -0.0996,0 -0.19908,0 -0.2974,0.016 -0.0536,0.01 0.0818,0.131 0.133,0.1094 0.0114,0 0.0258,-0.014 0.039,-0.022 0.0416,-0.034 0.0836,-0.069 0.12529,-0.103 z m -0.12529,0.1031 c -0.12092,0.099 -0.24166,0.1988 -0.36244,0.2983 0.13204,-0.015 0.26434,-0.026 0.39655,-0.04 -0.18459,0.1336 -0.0666,0.08 0.11947,-0.013 -0.0394,0 -0.0786,0.01 -0.11789,0.013 0,0 0,0 0.004,0 0.0385,0 0.0736,-0.01 0.11553,-0.01 0,0 0,0 0,0 0.0228,0 0.0457,0 0.0684,-0.01 0.021,0 -0.0385,0 -0.0637,0.01 0.21691,-0.1085 0.53744,-0.2754 0.7272,-0.3485 -0.1037,0.01 -0.17005,0.01 -0.29819,0.015 -0.14619,0.01 -0.29329,-0.01 -0.43987,-0.013 -0.0538,0.042 -0.10392,0.078 -0.1475,0.1024 z m 1.10733,-0.1158 c -0.018,0 -0.042,0 -0.0608,0 0.005,0.025 0.005,0.05 -0.004,0.075 0.0206,-0.027 0.0429,-0.052 0.0643,-0.078 z m -0.19059,0.2625 c -0.0228,0.03 -0.0434,0.061 -0.0561,0.093 -0.0171,0.042 0.0206,-0.028 0.0561,-0.093 z m -5.18936,1.5558 c -0.14264,0 -0.28515,0 -0.42743,0.011 -0.009,0.029 -0.0215,0.058 -0.032,0.088 0.21065,-0.062 0.39024,-0.095 0.6178,-0.093 -0.0528,0 -0.10563,0 -0.15836,-0.01 z m 0.27966,0.01 c 0.0232,0 0.0476,0 0.0719,0.01 0.004,0 0.006,0 0.009,0 -0.0272,0 -0.0539,0 -0.0809,0 z m 6.279,6.9443 c -2.17927,1.3551 0.29075,-0.5803 -0.96219,0.3023 -0.0215,0.01 -0.36744,0.167 -0.72615,0.268 -0.0623,0.045 -0.12604,0.086 -0.19778,0.099 -0.22124,0.041 -0.4198,0.06 -0.60269,0.071 -0.004,0 -0.005,0.01 -0.008,0.01 -0.007,0 -0.0153,0 -0.0228,0.01 -0.009,0.062 -0.12346,0.094 -0.20303,0.1024 -0.0787,0.047 -0.15735,0.093 -0.23605,0.1395 -0.0193,0 -0.0385,0.01 -0.0579,0.015 -0.32902,0.1657 -0.6714,0.2867 -1.04229,0.2376 -0.0819,-0.01 -0.16388,-0.011 -0.24586,-0.017 -0.20697,0.1602 -0.45914,0.4057 -0.30135,0.065 -0.0219,0.01 -0.0438,0.012 -0.0656,0.018 -0.0712,0.2391 -0.15678,0.47 -0.27835,0.6797 -0.12,0.2071 -1.03419,0.5543 -1.29529,0.5451 -0.0626,0 -0.0568,-0.1942 -0.11579,-0.1701 -0.16502,0.067 -0.2707,0.2552 -0.40602,0.3828 l -0.32701,0.062 c -0.12801,0.1712 -0.24643,0.3514 -0.38911,0.509 -0.41783,0.3999 -0.29114,0.3059 -0.45918,0.344 -0.45664,0.427 -2.47466,1.388 -1.30348,0.7122 -0.2487,0 -0.49728,-2e-4 -0.74598,0 -0.71695,0 -1.43382,-0.011 -2.15072,-0.01 -0.021,0 -0.46168,0.01 -0.76504,-0.01 -0.23044,0.1169 -0.46991,0.2132 -0.70421,0.3194 -0.0585,0.026 -0.1312,-0.035 -0.18849,0 -0.0197,0 -0.0377,0 -0.0568,0 -0.0241,0.012 -0.0219,0.01 -0.0311,0 -0.0219,0 -0.0438,0 -0.065,0 -0.0818,0.014 -0.2685,0.068 -0.74542,0.2516 -0.0888,0.034 0.12035,-0.01 0.25427,-0.041 0.0412,-0.02 0.0736,-0.036 0.12954,-0.061 0.0215,-0.01 -0.0346,0.039 -0.0574,0.045 -0.0158,0 -0.0487,0.011 -0.0722,0.016 -0.52632,0.2524 0.0598,0.05 -0.96483,0.3309 -0.0193,-0.022 0.007,-0.1074 -0.0193,-0.096 -0.49658,0.2117 -0.88941,0.6781 -1.47217,0.5138 -0.18319,0.1011 -0.36761,0.1939 -0.55619,0.2744 -0.43583,0.575 -0.85021,0.6999 -1.32673,0.6709 0.0715,0.2164 -0.2964,0.3273 -0.50648,0.4448 -0.0337,0.1332 -0.14754,0.1798 -0.30082,0.1744 -0.47924,0.2547 -0.98313,0.3862 -1.49596,0.5546 -0.18468,0.061 -0.35933,0.1006 -0.52469,0.1243 -0.0315,0.038 -0.0642,0.077 -0.10152,0.1166 -0.68414,0.7336 0.64846,-0.6414 -1.20332,0.698 -0.1584,0.1146 0.27463,-0.044 0.51655,-0.1535 0.11312,-0.1031 0.22707,-0.205 0.34654,-0.298 0.0916,-0.071 -0.14728,0.2007 -0.24792,0.2534 -0.0236,0.012 -0.0652,0.029 -0.0986,0.045 -0.0848,0.077 -0.16892,0.1555 -0.25484,0.231 -0.26224,0.081 -0.5211,0.1787 -0.78693,0.2418 -0.0601,0.014 -0.1909,0.059 -0.18372,-0.011 0.0114,-0.1082 0.29894,-0.2542 0.20829,-0.2225 -0.16563,0.058 -0.29745,0.2036 -0.44622,0.3054 -0.15289,0.045 -0.30577,0.09 -0.45865,0.1349 -0.37089,0.4892 -0.58141,0.4869 -1.18375,0.4822 -0.28896,0 -0.578,-0.015 -0.86677,0.01 -0.0543,0 -0.83178,-0.01 -1.0476,-0.053 -0.032,0.018 -0.0664,0.036 -0.10418,0.052 -0.51835,0.2216 -0.71056,0.3266 -1.152,0.3091 -0.0685,0 -0.13747,0 -0.20618,-0.01 -0.60988,0.3495 -1.14688,0.3767 -1.54195,0.1987 -0.16751,0.1021 -0.34833,0.1188 -0.61166,0.1204 -0.08,0.07 -0.21227,0.1523 -0.28366,0.1914 -0.0989,0.054 -0.20237,0.095 -0.30691,0.1337 -0.0342,0.034 -0.0688,0.068 -0.0891,0.094 -0.97328,0.4855 -0.98072,0.5812 -1.86974,0.5317 -0.0513,-0.014 -0.10239,-0.029 -0.15359,-0.043 -0.0311,0.017 -0.0289,0.016 -0.0682,0.037 -0.67084,0.2652 -0.98751,0.4149 -1.66246,0.2777 -0.0795,-0.01 -0.1595,-0.014 -0.23873,-0.026 -0.0307,0 -0.0394,-0.079 -0.069,-0.07 -0.10962,0.032 -0.20574,0.1096 -0.31326,0.1498 -0.0228,0.01 -0.14951,0.049 -0.24056,0.079 -0.047,0.051 -0.0969,0.096 -0.157,0.1224 -0.20246,0.087 -0.41385,0.1403 -0.6273,0.1845 -0.10572,0.1112 -0.20781,0.2122 -0.26356,0.243 -0.31155,0.1723 -0.66685,0.2157 -1.00769,0.2823 -0.0171,0 -0.0359,0 -0.0553,0.01 -0.25055,0.3219 -0.42331,0.324 -0.93417,0.3208 -0.43238,0 -0.8648,0 -1.29718,0 -0.0101,0 -0.0197,0 -0.0298,0 -0.22549,0.053 -0.43404,0.046 -0.68704,-0.01 -0.004,-10e-5 -0.007,0 -0.0101,0 -0.55101,0.6054 -0.54015,0.628 -1.09231,0.6329 -0.0507,0 -0.46999,0 -0.76367,-0.014 -0.17969,0.064 -0.35465,0.1118 -0.51813,0.1486 -0.61084,0.4299 -0.856,0.546 -1.31246,0.4947 -0.30148,0.1509 -0.60615,0.2495 -0.74783,0.3175 -0.59954,-0.032 -0.94638,0.017 -1.15467,0 -0.13484,0.095 -0.17,0.069 -0.75496,0.079 4e-5,-0.01 0,-0.019 0,-0.029 -0.22063,0.042 -0.43689,-0.025 -0.75207,-0.1137 0.0656,0.046 0.21432,0.052 0.19694,0.1374 -0.0206,0.1002 -0.16432,0.083 -0.24901,0.1167 -0.27704,0.1096 -0.52755,0.1847 -0.7883,0.1929 -0.006,0 -0.0131,0.01 -0.0188,0.01 -0.0701,0.064 -0.15617,0.1 -0.26009,0.1245 -0.38337,0.1755 -0.11837,0.031 -0.71958,0.1851 -0.16028,0.041 -0.30944,0.1272 -0.4668,0.1814 -0.17228,0.051 -0.3422,0.087 -0.51203,0.1042 -0.26465,0.2211 -0.39993,0.3084 -0.89191,0.3467 -0.0913,0.01 -0.18275,0 -0.27415,-0.01 -0.46536,0.3544 -0.89839,0.34 -1.54667,0.1841 -0.0302,-0.01 0.0565,0.03 0.0846,0.045 0.005,0 0.01,0 0.0136,0 0.0101,0 0.0175,0.013 0.0201,0.027 0.005,0.026 -0.5533,0.3573 -0.78773,0.5047 -0.38775,0.1844 -0.73079,0.2262 -1.08569,0.2039 v 804.5277 c 0.17658,-0.01 0.35276,-0.01 0.5282,0.01 0.51865,-0.6373 1.18997,-0.7023 1.87206,-0.6278 0.24572,-0.155 0.46399,-0.2687 0.5546,-0.3327 0.1076,0 0.21529,-0.01 0.3225,0 0.16721,0.016 0.20912,0.021 0.30927,0.03 0.4841,-0.2923 0.74108,-0.3368 1.28501,-0.3437 0.0757,0 0.15179,0 0.22707,0.01 0.10909,0.012 0.13655,0.017 0.19987,0.025 0.0394,-0.017 0.0791,-0.032 0.11921,-0.047 0.51764,-0.8683 0.62152,-0.8713 1.26648,-0.9243 0.39589,-0.016 0.30217,-0.027 0.55828,0.044 0.43798,-0.6591 0.59262,-0.6656 1.22076,-0.6596 0.24174,0.01 0.48129,0.017 0.72247,-0.018 0.12371,-0.01 0.53157,-0.01 0.81023,0.032 0.41875,-0.4679 0.92711,-0.7018 1.66933,-0.6412 0.38416,0.01 0.76832,0.01 1.15174,-0.021 0.33866,0.014 0.29197,0.01 0.41236,0.052 0.54296,-0.3184 0.83743,-0.3832 1.40636,-0.3017 0,0 0,0.01 0.004,0.01 0.004,0 0.007,-0.01 0.0118,-0.01 -0.004,0 -0.01,0 -0.0145,-0.01 0.004,0 0.0123,-0.01 0.0241,0 -0.004,0 -0.006,0 -0.009,0.01 0.0315,0.01 0.0652,0.01 0.0984,0.016 0.004,0 0.007,-0.01 0.0101,-0.01 -0.0399,-0.01 -0.0727,-0.013 -0.0988,-0.014 0.11855,-0.057 0.21411,-0.113 0.31799,-0.1595 0.0429,-0.046 0.0889,-0.089 0.13988,-0.1231 0.63286,-0.426 1.00296,-0.4413 1.55113,-0.3664 0.15981,-0.1101 0.2939,-0.1909 0.41635,-0.2461 0.32294,-1.4229 0.86187,-2.7806 1.10181,-0.4163 0.23991,-0.01 0.27809,-0.016 0.45095,0.01 0.28475,-0.1964 0.63383,-0.4198 0.74971,-0.433 0.0201,0 0.007,0.046 0.0123,0.068 0.10147,-0.1248 0.17566,-0.2893 0.30454,-0.3744 0.6909,-0.4557 0.92278,-0.5039 1.56572,-0.5445 0.28278,0.02 0.33901,0.017 0.42533,0.042 0.15937,-0.131 0.35421,-0.3048 0.60589,-0.5531 0.0565,-0.056 -0.0684,-0.01 -0.18293,0.032 -0.0481,0.03 -0.0925,0.058 -0.17237,0.1033 -0.0236,0.013 0.0372,-0.042 0.0558,-0.064 0.0267,-0.01 0.0743,-0.024 0.11658,-0.04 0.49207,-0.3055 -0.46167,0.1062 1.06292,-0.4495 0.0843,0 0.16936,-0.01 0.25326,0.01 0.0434,0.01 0.0652,0.01 0.10121,0.014 0.39327,-0.2817 0.80756,-0.3675 1.28768,-0.3179 0.11876,-0.059 0.30191,-0.1004 0.82551,-0.3114 0.39012,0 0.78028,-0.011 1.17026,0 0.28598,0.021 0.40746,0.012 0.75475,-0.061 0.65016,0.1392 0.59126,0.069 0.85301,0.2974 0.13209,0.017 0.25375,0.053 0.37751,0.096 15.02329,-6.3479 26.97513,-12.9332 26.97513,-14.8934 z m -2.47133,0.711 c -0.0153,0.01 -0.0315,0.018 -0.0471,0.026 v 0.01 c 0.0101,0 0.0201,0 0.0298,0 0.0127,-0.012 0.0276,-0.035 0.0175,-0.029 z m -0.059,0.032 c -0.0337,0 -0.0623,0 -0.0943,0 -0.0416,0.023 -0.0831,0.046 -0.12371,0.071 0.0552,-0.012 0.10983,-0.027 0.1644,-0.043 -0.049,0.028 -0.099,0.055 -0.14829,0.083 h 0.0101 c 0.0474,-0.028 0.0948,-0.056 0.1422,-0.084 v 0 c 0.009,-0.01 0.0188,-0.01 0.0285,-0.016 0.007,0 0.0149,-0.01 0.0228,-0.014 z m -8.93383,0.2039 c -0.16935,0.041 -0.33928,0.08 -0.50885,0.1197 0.0416,0.054 0.0888,0.1103 0.1359,0.1669 0.0742,0 0.14837,0 0.22256,0 0.0416,-0.095 0.0907,-0.1894 0.15039,-0.2835 z m -19.16427,0.6168 c -0.11093,0.02 -0.22037,0.035 -0.32753,0.046 0.0149,0.026 0.0289,0.052 0.0444,0.078 0.13441,-0.032 0.27082,-0.054 0.40764,-0.073 -0.0403,-0.016 -0.0826,-0.033 -0.12451,-0.051 z m 0.9699,0.083 c -0.0228,0.01 -0.0465,0.014 -0.069,0.02 -0.028,0.023 -0.057,0.048 -0.0851,0.071 -0.004,0.016 -0.004,0.031 -0.006,0.047 0.0355,-0.016 0.0713,-0.03 0.10703,-0.045 0.018,-0.031 0.0355,-0.062 0.0534,-0.092 z m 23.13528,0.1656 c 0.11737,0.2042 0.21219,0.3123 0.23737,0.124 0.004,-0.022 0.005,-0.044 0.007,-0.066 -0.0724,-0.01 -0.14649,-0.027 -0.22313,-0.055 -0.007,0 -0.014,0 -0.021,0 z m -0.78351,1.0419 -0.70027,0.1325 c 0.58369,0.024 0.43623,0.073 0.70027,-0.1325 z m -0.85674,0.8894 c -0.12052,0.048 -0.2777,0.1163 -0.52768,0.2428 -0.13256,0.067 0.29452,-0.042 0.42139,-0.1222 0.0407,-0.026 0.0744,-0.071 0.10629,-0.1206 z m -8.26054,1.6423 c 0,0 -0.004,0 -0.0109,0 -0.0589,0.034 -0.1172,0.067 -0.17579,0.1008 0.007,0 0.0131,-10e-5 0.0197,0 0.0521,0 0.17289,-0.1015 0.16681,-0.1051 z m -2.40451,0.2905 c -0.11023,0 -0.22007,0.01 -0.32937,0.024 -0.21586,0.034 0.0533,0.083 0.42243,0.084 0,-0.033 0.004,-0.07 0.004,-0.1061 -0.032,0 -0.0645,0 -0.0965,0 z m -0.0925,0.5965 c -0.008,0 -0.0166,0.01 -0.0254,0.01 0,0 0.004,0.01 0.005,0.01 0.007,-0.01 0.0131,-0.011 0.0201,-0.017 z m -8.27293,3.2458 c 0,-0.01 -0.0407,0.032 -0.10257,0.078 0.0193,0 0.0337,-0.01 0.0571,-0.01 0.0302,-0.043 0.0449,-0.064 0.0455,-0.068 z m -4.05112,0.8869 c -0.0787,0.04 -0.14241,0.069 -0.20592,0.098 -0.0214,0.023 -0.0462,0.047 -0.0719,0.072 0.062,-0.016 0.0572,-0.017 0.16124,-0.041 0.0407,-0.033 0.0786,-0.081 0.11658,-0.1285 z m -0.38302,0.1756 c -0.0854,0.034 -0.0911,0.045 -0.0171,0.025 0.006,-0.01 0.0114,-0.016 0.0171,-0.025 z m -0.0931,0.131 c -0.16475,0.057 -0.33064,0.1111 -0.488,0.1899 -0.13006,0.065 0.289,-0.039 0.41267,-0.1191 0.028,-0.018 0.0522,-0.043 0.0753,-0.071 z m -2.44072,0.433 c -0.005,0 0.11767,0.048 0.16392,0.057 0.0215,0 0.0455,0.01 0.0706,0 -0.0745,-0.021 -0.14894,-0.042 -0.22387,-0.06 -0.007,0 -0.0101,0 -0.0105,0 z m -2.6297,0.5132 c 0.0123,-0.016 -0.11561,0.1303 -0.2551,0.2814 0.0123,-0.01 0.025,-0.013 0.0372,-0.018 0.14732,-0.1782 0.20986,-0.2529 0.21783,-0.2631 z m -15.4053,0.3695 c -0.0153,0 -0.0346,0.01 -0.0587,0.021 -0.13546,0.063 -0.25436,0.1549 -0.3645,0.2623 0.12906,-0.058 0.27008,-0.1071 0.42318,-0.1468 0.0519,-0.093 0.0627,-0.1486 0,-0.1364 z m 14.94271,0.015 c -0.19309,0.037 -0.38683,0.071 -0.57734,0.1182 -0.10677,0.026 0.22147,0.016 0.32723,-0.015 0.0858,-0.025 0.16848,-0.063 0.25011,-0.103 z m -0.92445,0.1082 c -0.009,0.014 -0.0254,0.043 -0.0342,0.057 0.007,10e-5 0.0114,-10e-5 0.018,0 0.006,-0.019 0.0105,-0.038 0.0162,-0.057 z m -5.86659,1.5296 c -0.39528,0.067 -0.5885,0.057 -0.19431,0.045 0.0631,-0.019 0.12906,-0.031 0.19431,-0.045 z m -2.02652,0.1954 c -0.0368,0.015 -0.0715,0.03 -0.11018,0.046 -0.007,0 -0.0153,0 -0.0232,0.01 -0.0179,0.01 -0.0381,0.022 -0.0579,0.034 0.0324,0.022 -0.0394,0.045 -0.11207,0.065 -0.0223,0.013 -0.0519,0.03 -0.0724,0.042 0.15178,0 0.32569,-0.1355 0.37562,-0.1939 z m -7.94435,2.1212 c -0.0485,0 -0.0956,0 -0.0732,0.01 0.0206,0 0.0469,0 0.0732,-0.01 z m 26.76869,797.734 c 0,0 0.004,0 0.004,0.01 0,0 0,0 -0.004,-0.01 z m -4.01012,0.2628 c -0.13003,0.094 -0.37821,0.42 -0.28204,0.3154 0.13993,-0.1522 0.21021,-0.2338 0.28204,-0.3154 z m -9.63462,3.4898 c -0.0476,0.02 -0.0901,0.042 -0.12898,0.064 0.0446,0.01 0.0519,0.011 0.0682,0.016 0.0197,-0.027 0.0403,-0.054 0.0608,-0.08 z m -0.0608,0.08 c 0,0 0,0 0,0 0.0145,0.01 0.0263,0.01 0.0416,0.01 0.0127,0 -0.0298,-0.01 -0.0394,-0.01 z m 0,0 c -0.0272,-0.01 -0.0506,-0.01 -0.0764,-0.012 -0.1228,0.074 -0.18731,0.1594 -0.1073,0.2556 0.0647,-0.076 0.12372,-0.1606 0.18372,-0.2434 z m -1.42667,0.3239 c 0.0729,0.022 0.13633,0.042 0.27305,0.077 0.0549,0.014 -0.10475,-0.05 -0.1602,-0.061 -0.032,-0.01 -0.0721,-0.012 -0.11285,-0.016 z m -0.26912,0.01 c -0.0743,0.017 -0.13966,0.051 -0.17977,0.1094 0.065,-0.041 0.12122,-0.074 0.17977,-0.1094 z m -5.58035,1.2719 c 0.0223,0.01 0.0263,0.01 0.0508,0.013 0.0127,0.01 -0.0236,-0.012 -0.0372,-0.013 z m -0.39888,0.064 c -0.05,0.033 -0.0964,0.076 -0.14649,0.1082 0.004,0.039 0.004,0.075 0.007,0.1133 0.0502,-0.081 0.0962,-0.1529 0.1401,-0.2215 z m -0.82105,0.2222 c -0.84329,0.3386 -0.72671,0.2321 -0.62388,0.3448 0.0466,-0.018 0.096,-0.034 0.14303,-0.046 0.16313,-0.095 0.32679,-0.1904 0.48085,-0.299 z m -0.48085,0.299 c -0.0407,0.024 -0.0816,0.048 -0.12214,0.072 0.006,0.01 0.0105,0.021 0.0153,0.032 0.0894,-0.032 0.17825,-0.066 0.26461,-0.1069 0.0776,-0.037 -0.0272,-0.03 -0.15779,0.01 z m -0.12214,0.072 c -0.007,-0.01 -0.0136,-0.019 -0.021,-0.026 -0.0663,0.026 -0.12511,0.058 -0.15437,0.095 -0.0101,0.012 -0.018,0.027 -0.0276,0.041 0.021,-0.01 0.042,-0.016 0.0635,-0.023 0.046,-0.029 0.0924,-0.058 0.13931,-0.086 z m 3.78305,0.1671 c -0.007,0 -0.0145,0.01 -0.0236,0.024 -0.11987,0.2338 -0.20417,0.4891 -0.28628,0.7454 0.0886,-0.079 0.17417,-0.1627 0.25295,-0.2553 0.0873,-0.1025 0.10287,-0.5087 0.0568,-0.5141 z m -1.63737,0.6515 c -0.007,0 -0.0149,0.01 -0.0245,0.025 -0.19685,0.3645 -0.3193,0.6399 -0.40259,0.8578 0.0118,-0.01 0.0236,-0.01 0.035,-0.01 0.0377,-0.054 0.0768,-0.1059 0.12,-0.154 0.0289,-0.033 0.0425,-0.026 0.0447,0.01 0.0531,-0.06 0.10716,-0.1223 0.1623,-0.1911 0.0872,-0.1089 0.11215,-0.5244 0.065,-0.5302 z m -0.22733,0.7222 c -0.0457,0.052 -0.0883,0.095 -0.13217,0.1407 0.039,-0.011 0.0786,-0.022 0.11763,-0.033 0.0105,-0.045 0.0162,-0.084 0.0145,-0.1073 z m -3.38786,0.4807 c -0.005,0.01 -0.0149,0.028 -0.0285,0.07 -0.0448,0.1357 -0.0691,0.2826 -0.0904,0.4312 0.007,0 0.0149,0 0.0223,-0.01 0.0765,-0.3002 0.11706,-0.5205 0.0965,-0.4971 z m -4.05799,0.2829 -0.004,0.01 c -0.0719,0.085 -0.0407,0.2441 -0.008,0.3934 0.004,0.01 0.007,0.01 0.0109,0.01 0,-0.1347 -0.004,-0.2707 0,-0.4036 z"
         inkscape:label="odlesk" />
    </g>
  </g>
</svg>
