<?xml version="1.0" encoding="UTF-8" standalone="no"?>
<!-- Created with Inkscape (http://www.inkscape.org/) -->
<svg xmlns:rdf="http://www.w3.org/1999/02/22-rdf-syntax-ns#" xmlns="http://www.w3.org/2000/svg" xmlns:cc="http://web.resource.org/cc/" xmlns:xlink="http://www.w3.org/1999/xlink" xmlns:dc="http://purl.org/dc/elements/1.1/" xmlns:svg="http://www.w3.org/2000/svg" xmlns:inkscape="http://www.inkscape.org/namespaces/inkscape" xmlns:sodipodi="http://sodipodi.sourceforge.net/DTD/sodipodi-0.dtd" xmlns:ns1="http://sozi.baierouge.fr" id="svg2" viewBox="0 0 682.09 313.38" version="1.0" inkscape:version="0.91 r13725">
  <defs id="defs4">
    <linearGradient id="linearGradient3189">
      <stop id="stop3191" style="stop-color:#a2a2a2" offset="0"/>
      <stop id="stop3193" style="stop-color:#efefef;stop-opacity:0" offset="1"/>
    </linearGradient>
    <radialGradient id="radialGradient3195" xlink:href="#linearGradient3189" gradientUnits="userSpaceOnUse" cy="341.73" cx="762.72" gradientTransform="matrix(.33616 -.94180 .59879 .21373 301.7 960.01)" r="138.65"/>
    <radialGradient id="radialGradient3197" xlink:href="#linearGradient3189" gradientUnits="userSpaceOnUse" cy="272.66" cx="358.79" gradientTransform="matrix(1.3751 .063016 -.029660 .64722 -115.57 31.319)" r="242.65"/>
  </defs>
  <g id="layer3" transform="translate(-180.54 -73.705)">
    <path id="path3292" style="stroke:#000000;stroke-linecap:round;stroke-width:.5;fill:url(#radialGradient3195)" d="m611.26 277.35c54.84 42.49 151.25 46.25 206.25-16.25s-23.73-128.36-63.75-103.75c-27.91 17.17-11.77 26.6 3.05 17.85 14.03-8.28 19.21 2.29 8.2 10.9-35.98 28.13-84.32-8.35-19.8-44.83 66.01-37.33 153.73 47.8 101.05 123.58-31.04 44.65-67.7 74.53-144.87 73.7-56.82-0.61-92.96-5.73-115.82-5.31 15.96-23.95 26.94-55.89 25.69-55.89z"/>
    <path id="path3320" style="fill:#000000" d="m820.23 175.08s-18.94-21.92-45.06-22.93c-22.98-0.88-36.01 18.19-36.01 18.19s10.67-20.21 35.89-20.32c25.23-0.1 45.18 25.06 45.18 25.06z"/>
    <path id="path3294" style="fill:#030303" d="m590.47 332.66s22.71-17.82 28.04-14.61c85.21 27.46 148.97 16.13 188.64-10.61-19.94 16.98-48.61 27.71-82.85 30.17-32.67 2.35-74.29-1.13-133.83-4.95z"/>
  </g>
  <g id="layer1" transform="translate(-180.54 -73.705)">
    <path id="path2453" style="stroke:#000000;stroke-linecap:round;stroke-width:.5;fill:url(#radialGradient3197)" d="m181.68 118.39c-2.17 1.09 0 14.69 2.72 17.95l-2.17 4.35 4.35-1.63-2.18 7.07 5.98-1.63s-3.26 7.61-3.26 7.61l7.18-2.51s-2.83 8.5-2.83 8.5l7.88-3.65-1.89 8 6.52-2.18-1.08 7.62 6.52-3.81-2.17 9.79 7.07-4.89-1.09 9.24 6.53-4.35s-1.63 8.71-1.63 8.71 5.1-5.75 7.07-4.36c1.97 1.4-1.63 7.62-1.63 7.62s6.52-4.9 7.07-4.35c0.54 0.54-1.09 9.25-1.09 9.25l6.53-5.44-1.09 8.16 6-4.65-0.56 7.91 5.44-5.44-1.09 8.16 5.64-4.83-1.29 8.09 5.99-5.44-0.02 8.58 6-5.31s0.54 8.16 0.54 8.16l4.9-5.44s0.54 7.61 0.54 7.61l5.44-5.44 0.8 7.27 3.55-2.37 0.35 3.91 4.18-4.16 0.18 6.34 5.08-3.92-1.08 7.62 7.07-3.26-1.63 6.52 6.52-2.72 0.95 5.88 4.49-3.16c1.64 1.09 2.72 3.81 2.72 3.81s14.15-3.81 19.04-1.63c4.9 2.17 22.85 4.35 25.02 3.81 2.18-0.55 5.99 41.34 7.08 44.6 1.08 3.26-1.09 7.07-3.27 8.7-2.17 1.64-58.2 44.06-60.38 44.06-2.17 0-33.72-1.63-46.23 3.27-9.25 3.26 40.25 8.7 42.97 8.16 0 3.26 5.98 14.68 14.14 13.05s3.27-16.86 3.27-16.86c10.33-3.26 48.95-33.73 54.39-40.25 5.44-6.53 11.97-7.07 14.14-11.97 2.18-4.9 0-29.92 0-29.92s17.95 16.87 18.5 20.13c-4.35 3.81-19.04 38.08-24.48 50.04-5.44 11.97-21.76 34.27-21.76 34.27-6.53 1.63-38.08 9.79-38.62 19.04s43.52 0 43.52 0 17.4 15.78 21.76 9.79c3.8 3.27 5.44-5.44 3.8-17.95 1.09-10.88 15.78-29.92 20.13-40.25 4.35-10.34 13.05-31.01 19.04-40.25 5.98-9.25 3.81-18.5-1.09-27.75-4.9-9.24 1.63-1.63 1.63-1.63l0.55 4.35 5.44-1.08 0.54 5.98 4.35-2.18 2.18 5.99 4.35-1.09v4.9l5.44-1.09 0.54 5.44 5.44-1.64 0.55 5.99 4.89-2.72-0.54 6.53 4.89-2.72v6.52s29.92 47.87 28.29 52.22c-1.63 4.36-4.9 11.43-9.25 11.43s-37.53 6.52-38.08 11.96c-0.54 5.44 27.2 3.27 27.2 3.27s1.09 18.49 5.99 16.86c4.89-1.63 4.89-2.72 4.89-2.72s3.27 4.9 5.99 2.18c4.89 1.08 18.49-2.72 21.75-7.08 10.88-3.8 22.85-4.35 23.94-9.24 1.09-4.9-9.25-15.78-9.25-15.78s5.98-12.51 8.16-27.74c11.42 11.42 34.27 14.69 40.8 9.25 6.52-5.44 20.67-1.09 23.39-1.63 2.72-0.55 27.19-16.87 28.83-11.97 1.63 4.89-38.62 26.65-40.8 36.44-2.18 9.8 59.83 3.27 61.47-0.54 1.63-3.81-0.55-6.53-35.9-4.35 20.67-8.16 59.83-51.13 59.83-58.75 0-7.61 4.35-21.21-2.18-17.95-6.52 3.26-27.19 16.86-44.06 5.44-16.86-11.42-56.57-114.23-111.51-147.41-2.72 0.54-5.98 0.54-5.98 0.54l-1.63-6.53-5.99 3.27 1.64-4.35-7.08 1.63v-5.98l-4.89 2.72-1.09-5.99-5.44 2.72-1.09-5.44-6.52 3.81-1.09-5.98-3.81 3.26-2.72-4.9-6.53 2.72-3.8-5.98-6.53 3.81-2.18-4.35-5.98 3.8-3.81-5.44-5.98 4.36-3.81-6.53-4.9 5.44-3.26-6.53-3.81 4.9-2.17-5.99-5.99 4.9-2.72-5.99-5.44 5.99-4.35-5.44-2.72 5.98-4.89-6.53-1.09 6.53-4.9-3.26-1.63 5.44-4.89-3.27-3.81 4.9-2.18-3.26-0.54 2.72s-7.62-15.235-9.79-16.866c-2.18-1.632-23.39-5.984-27.74-6.528-4.36-0.544-17.41 3.808-21.76 3.264s-15.23-7.616-26.66-9.791c-13.05-10.336-32.09-10.88-45.14-3.808-13.06 7.071-28.29 14.143-37.54 27.199-7.07 4.35-10.33 8.7-12.51 12.51z"/>
    <path id="path3289" style="fill:#000000" d="m501.16 319.45s0.1-0.49 1.28-11.71c-28.58-20.61-69.97-74.1-114.73-87.51-12.22-4.36-18.81-18.25-4.22 6.94 0 0 42.45 37.2 29.68 56.91-4.35 3.81-33.92 69.41-39.36 81.38s-24.89 4.5-24.89 4.5c-6.53 1.63-29.48 8.38-39.41 5.72-4.52 7.83 43.52 0 43.52 0s17.4 15.78 21.76 9.79c3.8 3.27 5.44-5.44 3.8-17.95 1.09-10.88 15.78-29.92 20.13-40.25 4.35-10.34 13.05-31.01 19.04-40.25 5.98-9.25 3.81-18.5-1.09-27.75-4.9-9.24 1.63-1.63 1.63-1.63l0.55 4.35 5.44-1.08 0.54 5.98 4.35-2.18 2.18 5.99 4.35-1.09v4.9l5.44-1.09 0.54 5.44 5.44-1.64 0.55 5.99 4.89-2.72-0.54 6.53 4.89-2.72v6.52s29.92 47.87 28.29 52.22c-1.63 4.36-4.9 11.43-9.25 11.43s-37.53 6.52-38.08 11.96c-0.54 5.44 27.2 3.27 27.2 3.27 12.12-6.57 20.16-4.53 24.52-10.34 10.88-3.81 4.42-9.94 5.92-14.73 4.22-13.51 5.64-25.18 5.64-25.18z"/>
    <path id="path3287" style="fill:#000000" d="m375.87 250.64c-12.7-18.07-21.35-17.97-26.11-21.28 2.18-0.55 5.99 41.34 7.08 44.6 1.08 3.26-1.09 7.07-3.27 8.7-2.17 1.64-58.2 44.06-60.38 44.06-2.17 0-33.72-1.63-46.23 3.27-9.25 3.26 40.25 8.7 42.97 8.16 0 3.26 5.98 14.68 14.14 13.05s3.27-16.86 3.27-16.86c10.33-3.26 48.95-33.73 54.39-40.25 5.44-6.53 11.97-7.07 14.14-11.97 2.18-4.9 0-31.48 0-31.48z"/>
    <path id="path3283" style="fill:#999999" d="m537.94 290.9c0.17 17.25-11.85 15.24-11.39 35.28 11.42 11.42 34.27 14.69 40.8 9.25 6.52-5.44 20.67-1.09 23.39-1.63 2.72-0.55 27.19-16.87 28.83-11.97 1.63 4.89-38.62 26.65-40.8 36.44-2.18 9.8 59.83 3.27 61.47-0.54 1.63-3.81-0.55-6.53-35.9-4.35 20.67-8.16 59.83-51.13 59.83-58.75 0-7.61 4.35-21.21-2.18-17.95-119.17 80.45-124.59-39.08-124.05 14.22z"/>
    <path id="path2455" style="fill:#666666" d="m186.7 136.51s1.84 0 3.16 0.26c1.32 0.27 2.11-0.79 2.37 1.32s1.58 2.9 1.58 2.9 1.84-0.53 2.11 1.05c0.26 1.58 0.26 2.37 1.58 2.9 1.31 0.52 6.58 3.68 6.58 5.26s-0.53 1.85 0.26 3.16c0.79 1.32 2.9 2.11 3.95 2.11s5 3.42 5.79 5.27c0.79 1.84-0.52 2.89 1.85 3.42s3.95 0.26 4.21 1.32c0.26 1.05 1.05 6.05 3.16 6.32 2.11 0.26 4.48-0.79 4.74 0.79s0.79 2.1 2.37 2.1 0.79 0 2.11 1.85c1.31 1.84 1.58 1.58 3.16 1.05s2.37-2.37 4.21 0 3.42 3.16 4.48 2.63c1.05-0.52 6.32 1.06 7.63 0.27 1.32-0.79 3.69-3.16 5.01-1.58 1.31 1.58 2.63 1.58 3.68 1.31 1.06-0.26 2.64-2.89 4.22-1.05s1.05 1.84 3.16 1.84c2.1 0 1.05-1.84 2.89-0.26 1.85 1.58 9.22 4.48 9.22 4.48s2.37 0 2.11-1.06c-0.27-1.05-1.58-1.84-1.58-1.84s-1.06-1.84-2.11-2.11c-1.05-0.26-2.9-1.05-2.9-1.05s0.79-1.32-0.79-1.84c-1.58-0.53-3.16-0.79-3.16-1.85 0-1.05 1.58-1.05-0.52-1.58-2.11-0.52-3.16-1.05-3.43-2.1-0.26-1.06-0.26-1.85-1.31-2.11-1.06-0.26-2.64-1.05-2.64-1.05s0.79-1.32-0.52-1.58c-1.32-0.27-2.37-0.27-2.11-1.32s1.58-2.9 2.37-1.32 2.63 2.11 2.63 2.11 2.37-0.26 2.64 1.32c0.26 1.58 1.05 2.63 2.1 2.89 1.06 0.27 1.58-0.26 2.11 1.32s2.37 1.32 2.63 2.63c0.27 1.32 2.11 1.32 2.37 2.37 0.27 1.06 1.58 1.32 1.58 1.32s1.58-0.26 2.11 1.05c0.53 1.32 1.58 0.79 2.63 0.79 0 0 2.11 2.37 3.95 0.92 1.58-1.18 0.79-2.5 2.11-1.18s1.32 1.84 2.63 0.79c1.32-1.05 2.11-1.58 2.11-1.58s-3.42-8.16 4.74-15.01 14.48-4.74 18.96-14.22 11.59-21.33 15.54-25.02c3.95-3.68-8.17-8.16-13.7-10-5.53-1.85-15.01-1.85-21.33-6.85 6.85 1.58 10.8 5.27 21.33 5.53 10.54 0.26 13.96-5.27 17.65-7.64 3.68-2.37 12.11-1.58 6.05 8.17-6.05 9.74 0.27 15.8-6.84 22.91s-13.17 11.58-4.22 11.58c8.96 0 28.44-4.21 30.55-25.8 0.26-3.95-2.11-6.85 0.26-7.38 2.37-0.52 6.32 12.12-2.37 26.34s-10.27 11.32-12.64 16.06-7.9 5.53-9.21 8.43c-1.32 2.89 2.37 6.58-0.27 9.48-2.63 2.89-9.74 7.11-15.01 7.11-5.26 0-16.85 28.7-5.26 30.28 11.58 1.58 1.84-13.43 14.48-3.42 12.64 10 14.48 6.05 22.12 18.69 7.63 12.64 1.05 0.79-12.38 0.27-13.43-0.53-14.48-4.48-21.85-3.43-7.38 1.06-20.81-1.31-29.23-8.16-8.43-6.85-7.38-8.16-22.12-12.9-14.75-4.74-79.53-48.72-83.48-66.89l-0.24-0.76"/>
    <path id="path3230" style="fill:#666666" d="m383.41 220.12c0.99 1.48 2.34 2.14 3.13 2.86 0.8 0.74 1.49 1.33 2.35 2.09 0.6 0.53 1.51 1.89 2.08 2.6 0.94 1.18 1.88 1.51 2.61 2.09 0.74 0.59 1.98 1.99 2.6 2.61 0.64 0.63 1.26 1.44 1.83 2.08 0.71 0.82 1.54 1.73 2.08 2.35 0.93 1.04 1.53 1.7 2.35 2.6 0.78 0.87 1.37 1.54 2.08 2.35 0.93 1.05 1.38 2.06 2.09 3.13 0.7 1.05 1.07 1.37 1.82 2.34 0.64 0.82 1.38 2.16 1.83 2.87 0.72 1.13 1.77 1.78 2.34 2.35 0.64 0.63 1.99 1.26 2.87 1.82 1.04 0.66 2.15 1.37 2.87 1.83 0.96 0.61 2.01 1.28 2.87 1.82 1.01 0.65 2.25 1.56 3.38 2.35 0.97 0.66 1.73 1.53 2.35 2.08 1.03 0.91 1.64 1.31 2.61 2.09 1.02 0.81 1.65 1.32 2.6 2.08 0.96 0.76 1.84 1.47 2.61 2.09 1.14 0.91 2.49 1.78 3.65 2.6 0.97 0.7 1.46 1.03 2.6 1.83 1.23 0.85 2.1 1.57 3.13 2.34 1.09 0.82 2.31 1.43 3.39 2.09 1.15 0.7 2.12 1.35 2.87 1.82 0.94 0.6 1.96 1.25 2.87 1.83 1 0.64 1.56 1.09 2.6 1.82 1.16 0.81 1.98 1.16 3.13 1.83 1.18 0.68 2.47 1.71 3.39 2.34 1.06 0.74 1.79 1.44 2.6 2.09 1.06 0.84 1.84 1.46 2.61 2.08 0.83 0.67 2 1.27 2.87 1.83 1.2 0.76 2.16 1.26 3.13 1.82 1.26 0.74 2.19 1.18 3.38 1.83 1 0.53 1.68 1.06 2.87 1.82 0.79 0.5 1.99 0.83 3.13 1.3 1.19 0.5 2.37 1.02 3.65 1.57 1.3 0.56 2.05 1.02 3.13 1.56 0.07 0.04 0.17 0 0.26 0 0.89 0 2.72 1.05 3.38 1.31 1.17 0.44 2.45 0.69 3.65 1.04 0.96 0.27 2.37 0.79 3.13 1.04 1.11 0.37 1.85 0.31 3.13 0.52 1.68 0.28 0.25-0.16 1.56-1.04 0.57-0.38 0.87-2.81 1.05-3.39 0.33-1.08 0.5-1.84 0.78-2.87 0.3-1.09 0.91-2.19 1.3-3.12 0.45-1.08 0.68-2.03 1.04-3.13 0.28-0.84 0.5-1.84 0.79-2.87 0.3-1.12 0.65-2.13 1.04-3.39 0.37-1.2 0.49-2.12 0.78-3.39 0.24-1.04 0.57-2.26 0.78-3.12 0.29-1.17 0.67-1.67 1.04-2.61 0.46-1.14 1.11-1.85 1.57-2.61 0.48-0.8 0.87-1.74 1.3-2.6 0.56-1.11 1.48-1.85 2.09-2.61 0.63-0.79 1.47-1.15 2.34-1.82 1.2-0.93 1.86-1.01 2.87-1.57 1.21-0.66 2.06-0.63 3.39-1.04 1.23-0.38 1.95-0.3 3.39-0.52 1.32-0.2 2.59 0.4 3.39 0.52 1.39 0.21 1.79 0.9 2.6 1.3 0.94 0.47 1.52 1.52 2.09 2.09 1.2 1.2-0.68-0.51-1.05-0.78-0.67-0.51-1.31-1.69-1.82-2.35-0.64-0.83-1.51-1.34-2.35-2.09-0.85-0.76-1.95-0.65-3.12-1.04-1.05-0.35-2.23 0-3.13 0-1.49 0-2.23 0.35-3.39 0.52-1.07 0.17-2.45 0-3.39 0-0.75 0-1.56-1.17-2.08-1.56-0.87-0.65-1.16-0.64-2.35-1.3-0.44-0.25-2.66 0.61-3.39 0.78-1.14 0.26-2.31-1.05-2.87-1.3-1.08-0.5-1.54-1.74-2.08-2.35-0.74-0.83-2.74 0.75-2.87 0.78-0.97 0.27-1.76 0.48-2.86 0.78-1.82 0.5-1.95-0.65-3.13-1.04-0.81-0.27-2.07-1.65-2.61-2.08-1.02-0.83-1.34-0.81-2.61-1.57-1.07-0.65-2.85 0-3.9 0-1.41 0-2.38 0.51-3.65 0.78-1.57 0.34-2.54-0.54-3.65-0.78-1.22-0.26-1.27-1.63-1.83-2.34-0.88-1.14 0.99-1.58 1.31-2.09 0.47-0.76 2.25-1.02 2.86-1.3 0.9-0.41-1.75-0.35-2.6-0.52-1.33-0.27-1.66 0.45-2.87 0.78-1.07 0.29-2.12 0.49-3.39 0.78-1.36 0.31-2.38-0.2-3.13-0.26-1.08-0.09-1.68-1.12-2.34-1.56-1.07-0.72-1.61-0.54-3.13-1.05-1.31-0.43-2.11-0.88-3.13-1.3-0.44-0.18-1.91-1.7-2.34-2.09-0.75-0.66 0.89-2.45 1.04-2.86 0.37-1.01-2.09 0.52-3.13 0.78-1.15 0.29-1.97 0.3-3.39 0.52-1.55 0.24-2.37-0.37-3.39-0.52-0.52-0.08-1.78-1.78-2.08-2.09-0.4-0.39-0.89-2.44-1.04-2.86-0.23-0.63-1.9 0.63-2.35 0.78-1.45 0.48-2.36-0.17-3.65-0.26-0.88-0.06-2.28-1.14-3.13-1.57-1.35-0.67-1.64-1.47-2.6-2.34-0.8-0.71 0.23-2.78 0.26-3.13 0.07-0.85-1.57 0.7-2.35 1.04-1.45 0.65-2.33-1.16-3.13-1.56-0.46-0.23-1.74-1.74-2.08-2.09-0.74-0.74-1.91 0.87-2.87 1.31-0.73 0.33-1.04 1.21-1.56 1.82-0.63 0.74-1.74-0.87-2.61-1.3-0.99-0.5-2.18-1.27-3.13-1.83-1.58-0.92 0.44-2.2 0.52-2.6 0.12-0.57 3.13-0.23 3.65-0.26 1.33-0.1 2.47-1.33 3.39-1.83 1.55-0.83 1.19-1.78 1.57-2.34 0.56-0.85-1.74 1.04-2.61 1.56-0.78 0.47-2.06 0.52-3.13 0.78-1.25 0.32-1.67-1.11-2.34-1.56-0.84-0.56-2.45-1.71-2.61-1.83-0.86-0.6 0.87 1.92 1.3 2.87 0.6 1.32-0.8 2.62-1.04 3.39-0.21 0.68-2.48 0-3.13 0-1.28 0-1.75-0.64-2.86-1.04-0.86-0.31-2.27-1.65-2.87-2.09-0.66-0.48-1.95-1.55-2.61-2.08-0.29-0.24-1.4 2.57-1.56 2.86-0.52 0.95-2.83-0.21-3.39-0.26-1.01-0.07-0.67-1.68-1.04-2.6-0.28-0.69 2.34 0 2.86 0 0.72 0 0.35-1.39 0.53-2.09 0.1-0.41-2.4 0.22-2.87 0.26-1.17 0.11-2.8 0.2-3.65 0.26-0.87 0.06-1.04 1.39-1.56 2.09-0.68 0.9-2.86-0.21-3.65-0.26-1.51-0.11-1.5-1.5-2.35-2.35-0.17-0.17 2.37-1.29 2.87-1.56 1.56-0.85 2.04-1.42 3.39-2.35 1.03-0.71 0-2.17 0-2.6 0-1.11-1.57 1.56-2.35 2.34-1.07 1.07-1.7 0.71-3.13 1.3-1.3 0.55-1.72-0.47-2.86-0.78-1.79-0.48-1.54 0.28-2.87 0.52-0.98 0.18-0.52 1.92-0.78 2.87-0.1 0.36-1.62 1.85-1.83 2.09z"/>
    <path id="path3232" style="fill:#666666" d="m368.82 188.32c-0.49 1.78-0.16 2.5-0.27 4.17-0.05 0.85 1.89 1.25 2.35 1.56 0.67 0.45 0.83 2.28 1.04 2.87 0.32 0.88 0.64 1.91 1.05 3.13 0.05 0.16 1.68 2.11 2.08 2.6 0.81 1.02 1.38 0.92 2.35 1.57 1.07 0.71 1.81 0.45 3.12 0.78 2.19 0.54-1.29 1.81-1.3 1.82-0.35 0.5-1.95 0.98-2.61 1.31-0.73 0.36-1.39 0.87-2.08 1.3-0.17 0.11-1.42-1.9-1.56-2.09-0.71-0.94-1.86-1.48-2.61-2.08-0.94-0.75-1.03-1.47-1.83-2.61-0.68-0.98-1.25-1.61-1.82-2.34-0.99-1.27-1.73-0.58-3.13-1.05-0.12-0.03-2.12 0.85-2.6 1.05-1.46 0.58-2.4-0.37-3.39-0.52-0.98-0.15 1.91-0.53 2.86-0.79 1.47-0.4 1.41-1.57 2.09-2.34 0.71-0.8-1.96-1.72-2.09-1.83-0.2-0.18 1.4-0.15 2.35-0.26 1.41-0.15 0.22-2.15 0.26-2.6 0.19-1.88-0.21 0.31 1.04-1.57 0.3-0.44 2.09-1.51 2.87-2.08 1.02-0.74 0.11 0 1.83 0z"/>
    <path id="path3234" style="fill:#666666" d="m541.62 275.89c1.01-0.73-0.52 2.44-0.78 3.65-0.18 0.87-0.73 1.84-1.04 2.61-0.34 0.84-1.02 1.71-1.56 2.61-0.56 0.92-1.06 1.58-1.57 2.34-0.52 0.79-0.68 1.72-1.04 2.61-0.38 0.96-0.16 2.12-0.26 3.39-0.1 1.31-0.17 2.35-0.26 3.65-0.08 1.12-0.54 2.51-0.78 3.65-0.27 1.22-0.73 2.18-1.05 3.12-0.39 1.19-0.92 2.04-1.3 2.87-0.41 0.9-0.68 1.71-1.04 2.61-0.44 1.09 1.25-0.14 2.34-0.26 0.77-0.09 2.4-0.8 3.13-1.05 1.34-0.44 2.46 0.57 3.39 0.79 1.22 0.28 2.07 1.69 2.87 2.34 1.23 1.01 1.78 1.96 2.6 2.87 0.91 1 1.98 1.08 2.87 1.56 0.8 0.44 3.01 0.4 3.91 0.52 1.38 0.19 2.4 0.86 3.65 1.31 1.12 0.4 1.94 1.06 2.87 1.56 1.24 0.68 2.42 1.21 3.65 1.83 1.26 0.63 2.69-0.83 3.38-1.05 1.53-0.47 0.41-2.85 0.53-3.65 0.14-1-1.64-2.04-2.09-2.6-0.77-0.97-1.1-1.84-1.56-2.61-0.47-0.77-0.39-2.74-0.53-3.65-0.16-1.12 0.41-2.63 0.53-3.39 0.21-1.35 0.36-2.51 0.52-3.65 0.15-1.04 0.52-2.09 0.78-3.12 0.06-0.24-1.1-2.41-1.3-2.87-0.48-1.06-1.57-1.74-2.35-2.61-0.64-0.71-2.38-1.28-3.39-1.82-1.14-0.61-2.2-0.85-3.39-1.3-1.37-0.53-2.4-1.61-3.12-2.09-1.25-0.83-1.38-1.23-2.35-2.09-0.7-0.62-1.56-1.94-2.09-2.6-0.52-0.66-0.88-1.77-1.3-2.61-0.77-1.54-1.64-1.64-2.87-2.87z"/>
    <path id="path3238" style="stroke:#000000;stroke-linecap:round;fill:none" d="m289.68 115.48a25.925 24.683 0 1 1 -51.85 0 25.925 24.683 0 1 1 51.85 0z" transform="matrix(.95297 0 0 .95689 12.095 5.4442)"/>
    <path id="path3242" style="stroke:#000000;stroke-linecap:round;stroke-width:.49413;fill:none" d="m289.68 115.48a25.925 24.683 0 1 1 -51.85 0 25.925 24.683 0 1 1 51.85 0z" transform="matrix(1.0177 0 0 1.006 -5.4539 -.54326)"/>
    <path id="path3244" style="fill:#000000" d="m220.44 116.72a2.7944 2.0181 0 1 1 -5.59 0 2.7944 2.0181 0 1 1 5.59 0z" transform="matrix(.92543 -.37892 -.37892 -.92543 60.457 307.21)"/>
    <path id="path3246" style="fill:#000000" d="m253.62 116.55a2.7173 4.0393 0 1 1 -5.44 0 2.7173 4.0393 0 1 1 5.44 0z"/>
    <path id="path3250" style="fill:#000000" d="m249.34 111.09c-2.26 0-4.09 2.47-4.09 5.47 0 3.01 1.83 5.44 4.09 5.44 2.27 0 4.13-2.43 4.13-5.44 0-3-1.86-5.47-4.13-5.47zm0.38 0.63c1.86 0 3.37 2.2 3.37 4.94 0 2.73-1.51 4.96-3.37 4.96s-3.38-2.23-3.38-4.96c0-2.74 1.52-4.94 3.38-4.94z"/>
    <path id="path3259" style="fill:#000000" d="m181.55 117.61c1.52-0.7 49.44 21.32 50.13 22.43s1.25 2.91 2.22 3.19c0.97 0.27 1.8-0.97 3.18-0.42 1.39 0.55 21.05 10.11 25.76 12.19 4.01 1.76 26.17 13.43 28.94 13.01 3.45-0.51 5.26-3.46 5.26-3.46s-4.84 2.63-6.23 2.22c-1.38-0.42-49.44-22.99-53.17-25.21-2.5 0.84-4.6-0.24-5.13-2.63-14.68-8.17-49.71-21.32-49.71-22.71-0.7 0.97 0 1.11-1.25 1.39z"/>
  </g>
  <metadata>
    <rdf:RDF>
      <cc:Work>
        <dc:format>image/svg+xml</dc:format>
        <dc:type rdf:resource="http://purl.org/dc/dcmitype/StillImage"/>
        <cc:license rdf:resource="http://creativecommons.org/licenses/publicdomain/"/>
        <dc:publisher>
          <cc:Agent rdf:about="http://openclipart.org/">
            <dc:title>Openclipart</dc:title>
          </cc:Agent>
        </dc:publisher>
        <dc:title>Gecko</dc:title>
        <dc:date>2009-07-13T03:42:51</dc:date>
        <dc:description>Gecko lizard</dc:description>
        <dc:source>https://openclipart.org/detail/27158/gecko-by-mlitty</dc:source>
        <dc:creator>
          <cc:Agent>
            <dc:title>mlitty</dc:title>
          </cc:Agent>
        </dc:creator>
        <dc:subject>
          <rdf:Bag>
            <rdf:li>gecko</rdf:li>
            <rdf:li>lizard</rdf:li>
            <rdf:li>mlitty</rdf:li>
          </rdf:Bag>
        </dc:subject>
      </cc:Work>
      <cc:License rdf:about="http://creativecommons.org/licenses/publicdomain/">
        <cc:permits rdf:resource="http://creativecommons.org/ns#Reproduction"/>
        <cc:permits rdf:resource="http://creativecommons.org/ns#Distribution"/>
        <cc:permits rdf:resource="http://creativecommons.org/ns#DerivativeWorks"/>
      </cc:License>
    </rdf:RDF>
  </metadata>
</svg>
